<mxfile host="app.diagrams.net" modified="2022-12-05T07:48:25.541Z" agent="5.0 (Windows NT 10.0; Win64; x64) AppleWebKit/537.36 (KHTML, like Gecko) Chrome/107.0.0.0 Safari/537.36" etag="K6dpTLtTNMtNe0QRWjZN" version="20.6.0" type="github" pages="4">
  <diagram id="4Zpf0-BWA_fjd_u1uYxs" name="Halaman-1">
    <mxGraphModel dx="2249" dy="1874" grid="1" gridSize="10" guides="1" tooltips="1" connect="1" arrows="1" fold="1" page="1" pageScale="1" pageWidth="827" pageHeight="1169" math="0" shadow="0">
      <root>
        <mxCell id="0" />
        <mxCell id="1" parent="0" />
        <mxCell id="i0vCOCOfqdjtQRk0yR_S-37" value="Pasien" style="shape=table;startSize=30;container=1;collapsible=1;childLayout=tableLayout;fixedRows=1;rowLines=0;fontStyle=1;align=center;resizeLast=1;" parent="1" vertex="1">
          <mxGeometry x="-160" y="5" width="180" height="205" as="geometry" />
        </mxCell>
        <mxCell id="i0vCOCOfqdjtQRk0yR_S-38" value="" style="shape=tableRow;horizontal=0;startSize=0;swimlaneHead=0;swimlaneBody=0;fillColor=none;collapsible=0;dropTarget=0;points=[[0,0.5],[1,0.5]];portConstraint=eastwest;top=0;left=0;right=0;bottom=1;" parent="i0vCOCOfqdjtQRk0yR_S-37" vertex="1">
          <mxGeometry y="30" width="180" height="30" as="geometry" />
        </mxCell>
        <mxCell id="i0vCOCOfqdjtQRk0yR_S-39" value="PK" style="shape=partialRectangle;connectable=0;fillColor=none;top=0;left=0;bottom=0;right=0;fontStyle=1;overflow=hidden;" parent="i0vCOCOfqdjtQRk0yR_S-38" vertex="1">
          <mxGeometry width="30" height="30" as="geometry">
            <mxRectangle width="30" height="30" as="alternateBounds" />
          </mxGeometry>
        </mxCell>
        <mxCell id="i0vCOCOfqdjtQRk0yR_S-40" value="ID_Pasien" style="shape=partialRectangle;connectable=0;fillColor=none;top=0;left=0;bottom=0;right=0;align=left;spacingLeft=6;fontStyle=1;overflow=hidden;" parent="i0vCOCOfqdjtQRk0yR_S-38" vertex="1">
          <mxGeometry x="30" width="150" height="30" as="geometry">
            <mxRectangle width="150" height="30" as="alternateBounds" />
          </mxGeometry>
        </mxCell>
        <mxCell id="i0vCOCOfqdjtQRk0yR_S-41" value="" style="shape=tableRow;horizontal=0;startSize=0;swimlaneHead=0;swimlaneBody=0;fillColor=none;collapsible=0;dropTarget=0;points=[[0,0.5],[1,0.5]];portConstraint=eastwest;top=0;left=0;right=0;bottom=0;" parent="i0vCOCOfqdjtQRk0yR_S-37" vertex="1">
          <mxGeometry y="60" width="180" height="30" as="geometry" />
        </mxCell>
        <mxCell id="i0vCOCOfqdjtQRk0yR_S-42" value="" style="shape=partialRectangle;connectable=0;fillColor=none;top=0;left=0;bottom=0;right=0;editable=1;overflow=hidden;" parent="i0vCOCOfqdjtQRk0yR_S-41" vertex="1">
          <mxGeometry width="30" height="30" as="geometry">
            <mxRectangle width="30" height="30" as="alternateBounds" />
          </mxGeometry>
        </mxCell>
        <mxCell id="i0vCOCOfqdjtQRk0yR_S-43" value="Nama_Pasien" style="shape=partialRectangle;connectable=0;fillColor=none;top=0;left=0;bottom=0;right=0;align=left;spacingLeft=6;overflow=hidden;" parent="i0vCOCOfqdjtQRk0yR_S-41" vertex="1">
          <mxGeometry x="30" width="150" height="30" as="geometry">
            <mxRectangle width="150" height="30" as="alternateBounds" />
          </mxGeometry>
        </mxCell>
        <mxCell id="i0vCOCOfqdjtQRk0yR_S-44" value="" style="shape=tableRow;horizontal=0;startSize=0;swimlaneHead=0;swimlaneBody=0;fillColor=none;collapsible=0;dropTarget=0;points=[[0,0.5],[1,0.5]];portConstraint=eastwest;top=0;left=0;right=0;bottom=0;" parent="i0vCOCOfqdjtQRk0yR_S-37" vertex="1">
          <mxGeometry y="90" width="180" height="30" as="geometry" />
        </mxCell>
        <mxCell id="i0vCOCOfqdjtQRk0yR_S-45" value="" style="shape=partialRectangle;connectable=0;fillColor=none;top=0;left=0;bottom=0;right=0;editable=1;overflow=hidden;" parent="i0vCOCOfqdjtQRk0yR_S-44" vertex="1">
          <mxGeometry width="30" height="30" as="geometry">
            <mxRectangle width="30" height="30" as="alternateBounds" />
          </mxGeometry>
        </mxCell>
        <mxCell id="i0vCOCOfqdjtQRk0yR_S-46" value="Alamat_Pasien" style="shape=partialRectangle;connectable=0;fillColor=none;top=0;left=0;bottom=0;right=0;align=left;spacingLeft=6;overflow=hidden;" parent="i0vCOCOfqdjtQRk0yR_S-44" vertex="1">
          <mxGeometry x="30" width="150" height="30" as="geometry">
            <mxRectangle width="150" height="30" as="alternateBounds" />
          </mxGeometry>
        </mxCell>
        <mxCell id="i0vCOCOfqdjtQRk0yR_S-47" value="" style="shape=tableRow;horizontal=0;startSize=0;swimlaneHead=0;swimlaneBody=0;fillColor=none;collapsible=0;dropTarget=0;points=[[0,0.5],[1,0.5]];portConstraint=eastwest;top=0;left=0;right=0;bottom=0;" parent="i0vCOCOfqdjtQRk0yR_S-37" vertex="1">
          <mxGeometry y="120" width="180" height="30" as="geometry" />
        </mxCell>
        <mxCell id="i0vCOCOfqdjtQRk0yR_S-48" value="" style="shape=partialRectangle;connectable=0;fillColor=none;top=0;left=0;bottom=0;right=0;editable=1;overflow=hidden;" parent="i0vCOCOfqdjtQRk0yR_S-47" vertex="1">
          <mxGeometry width="30" height="30" as="geometry">
            <mxRectangle width="30" height="30" as="alternateBounds" />
          </mxGeometry>
        </mxCell>
        <mxCell id="i0vCOCOfqdjtQRk0yR_S-49" value="Jenis_Kelamin" style="shape=partialRectangle;connectable=0;fillColor=none;top=0;left=0;bottom=0;right=0;align=left;spacingLeft=6;overflow=hidden;" parent="i0vCOCOfqdjtQRk0yR_S-47" vertex="1">
          <mxGeometry x="30" width="150" height="30" as="geometry">
            <mxRectangle width="150" height="30" as="alternateBounds" />
          </mxGeometry>
        </mxCell>
        <mxCell id="i0vCOCOfqdjtQRk0yR_S-64" style="edgeStyle=orthogonalEdgeStyle;curved=1;rounded=0;orthogonalLoop=1;jettySize=auto;html=1;entryX=0;entryY=0.5;entryDx=0;entryDy=0;" parent="1" source="i0vCOCOfqdjtQRk0yR_S-65" target="i0vCOCOfqdjtQRk0yR_S-69" edge="1">
          <mxGeometry relative="1" as="geometry" />
        </mxCell>
        <mxCell id="i0vCOCOfqdjtQRk0yR_S-65" value="Pasien" style="whiteSpace=wrap;html=1;align=center;" parent="1" vertex="1">
          <mxGeometry x="415" y="600" width="100" height="40" as="geometry" />
        </mxCell>
        <mxCell id="i0vCOCOfqdjtQRk0yR_S-66" style="edgeStyle=orthogonalEdgeStyle;curved=1;rounded=0;orthogonalLoop=1;jettySize=auto;html=1;entryX=0.5;entryY=0;entryDx=0;entryDy=0;" parent="1" source="i0vCOCOfqdjtQRk0yR_S-67" target="i0vCOCOfqdjtQRk0yR_S-73" edge="1">
          <mxGeometry relative="1" as="geometry" />
        </mxCell>
        <mxCell id="i0vCOCOfqdjtQRk0yR_S-67" value="Administrasi" style="whiteSpace=wrap;html=1;align=center;" parent="1" vertex="1">
          <mxGeometry x="680" y="730" width="100" height="40" as="geometry" />
        </mxCell>
        <mxCell id="i0vCOCOfqdjtQRk0yR_S-68" style="edgeStyle=orthogonalEdgeStyle;curved=1;rounded=0;orthogonalLoop=1;jettySize=auto;html=1;exitX=0.5;exitY=1;exitDx=0;exitDy=0;entryX=0.5;entryY=0;entryDx=0;entryDy=0;" parent="1" source="i0vCOCOfqdjtQRk0yR_S-69" target="i0vCOCOfqdjtQRk0yR_S-67" edge="1">
          <mxGeometry relative="1" as="geometry" />
        </mxCell>
        <mxCell id="i0vCOCOfqdjtQRk0yR_S-69" value="Melakukan" style="shape=rhombus;perimeter=rhombusPerimeter;whiteSpace=wrap;html=1;align=center;" parent="1" vertex="1">
          <mxGeometry x="670" y="590" width="120" height="60" as="geometry" />
        </mxCell>
        <mxCell id="i0vCOCOfqdjtQRk0yR_S-70" style="edgeStyle=orthogonalEdgeStyle;curved=1;rounded=0;orthogonalLoop=1;jettySize=auto;html=1;entryX=1;entryY=0.5;entryDx=0;entryDy=0;" parent="1" source="i0vCOCOfqdjtQRk0yR_S-71" target="i0vCOCOfqdjtQRk0yR_S-75" edge="1">
          <mxGeometry relative="1" as="geometry">
            <mxPoint x="310" y="920" as="targetPoint" />
          </mxGeometry>
        </mxCell>
        <mxCell id="i0vCOCOfqdjtQRk0yR_S-71" value="&lt;span style=&quot;font-weight: 700;&quot;&gt;Pemeriksaan&lt;/span&gt;" style="whiteSpace=wrap;html=1;align=center;" parent="1" vertex="1">
          <mxGeometry x="450" y="900" width="100" height="40" as="geometry" />
        </mxCell>
        <mxCell id="i0vCOCOfqdjtQRk0yR_S-72" style="edgeStyle=orthogonalEdgeStyle;curved=1;rounded=0;orthogonalLoop=1;jettySize=auto;html=1;" parent="1" source="i0vCOCOfqdjtQRk0yR_S-73" target="i0vCOCOfqdjtQRk0yR_S-71" edge="1">
          <mxGeometry relative="1" as="geometry" />
        </mxCell>
        <mxCell id="i0vCOCOfqdjtQRk0yR_S-73" value="DIlakukan" style="shape=rhombus;perimeter=rhombusPerimeter;whiteSpace=wrap;html=1;align=center;" parent="1" vertex="1">
          <mxGeometry x="680" y="890" width="120" height="60" as="geometry" />
        </mxCell>
        <mxCell id="i0vCOCOfqdjtQRk0yR_S-74" style="edgeStyle=orthogonalEdgeStyle;curved=1;rounded=0;orthogonalLoop=1;jettySize=auto;html=1;entryX=0.5;entryY=1;entryDx=0;entryDy=0;" parent="1" source="i0vCOCOfqdjtQRk0yR_S-75" target="i0vCOCOfqdjtQRk0yR_S-76" edge="1">
          <mxGeometry relative="1" as="geometry" />
        </mxCell>
        <mxCell id="i0vCOCOfqdjtQRk0yR_S-75" value="Mendapatkan" style="shape=rhombus;perimeter=rhombusPerimeter;whiteSpace=wrap;html=1;align=center;" parent="1" vertex="1">
          <mxGeometry x="130" y="890" width="120" height="60" as="geometry" />
        </mxCell>
        <mxCell id="i0vCOCOfqdjtQRk0yR_S-76" value="Jadwal" style="whiteSpace=wrap;html=1;align=center;" parent="1" vertex="1">
          <mxGeometry x="140" y="770" width="100" height="40" as="geometry" />
        </mxCell>
        <mxCell id="i0vCOCOfqdjtQRk0yR_S-77" style="edgeStyle=orthogonalEdgeStyle;rounded=0;orthogonalLoop=1;jettySize=auto;html=1;curved=1;entryX=0.468;entryY=-0.032;entryDx=0;entryDy=0;entryPerimeter=0;" parent="1" source="i0vCOCOfqdjtQRk0yR_S-78" target="i0vCOCOfqdjtQRk0yR_S-65" edge="1">
          <mxGeometry relative="1" as="geometry">
            <mxPoint x="410" y="610" as="targetPoint" />
          </mxGeometry>
        </mxCell>
        <mxCell id="i0vCOCOfqdjtQRk0yR_S-78" value="ID_Pasien" style="ellipse;whiteSpace=wrap;html=1;align=center;" parent="1" vertex="1">
          <mxGeometry x="250" y="560" width="100" height="40" as="geometry" />
        </mxCell>
        <mxCell id="i0vCOCOfqdjtQRk0yR_S-79" style="edgeStyle=orthogonalEdgeStyle;curved=1;rounded=0;orthogonalLoop=1;jettySize=auto;html=1;entryX=0.5;entryY=0;entryDx=0;entryDy=0;" parent="1" source="i0vCOCOfqdjtQRk0yR_S-80" target="i0vCOCOfqdjtQRk0yR_S-65" edge="1">
          <mxGeometry relative="1" as="geometry">
            <Array as="points">
              <mxPoint x="395" y="560" />
              <mxPoint x="460" y="560" />
              <mxPoint x="460" y="600" />
            </Array>
          </mxGeometry>
        </mxCell>
        <mxCell id="i0vCOCOfqdjtQRk0yR_S-80" value="&lt;span style=&quot;border-bottom: 1px dotted&quot;&gt;Nama_Pasien&lt;/span&gt;" style="ellipse;whiteSpace=wrap;html=1;align=center;" parent="1" vertex="1">
          <mxGeometry x="310" y="510" width="100" height="40" as="geometry" />
        </mxCell>
        <mxCell id="i0vCOCOfqdjtQRk0yR_S-81" style="edgeStyle=orthogonalEdgeStyle;curved=1;rounded=0;orthogonalLoop=1;jettySize=auto;html=1;" parent="1" source="i0vCOCOfqdjtQRk0yR_S-82" edge="1">
          <mxGeometry relative="1" as="geometry">
            <mxPoint x="460" y="600" as="targetPoint" />
          </mxGeometry>
        </mxCell>
        <mxCell id="i0vCOCOfqdjtQRk0yR_S-82" value="&lt;span style=&quot;border-bottom: 1px dotted&quot;&gt;Alamat_Pasien&lt;/span&gt;" style="ellipse;whiteSpace=wrap;html=1;align=center;" parent="1" vertex="1">
          <mxGeometry x="410" y="470" width="100" height="40" as="geometry" />
        </mxCell>
        <mxCell id="i0vCOCOfqdjtQRk0yR_S-83" style="edgeStyle=orthogonalEdgeStyle;curved=1;rounded=0;orthogonalLoop=1;jettySize=auto;html=1;" parent="1" source="i0vCOCOfqdjtQRk0yR_S-84" edge="1">
          <mxGeometry relative="1" as="geometry">
            <mxPoint x="460" y="600" as="targetPoint" />
          </mxGeometry>
        </mxCell>
        <mxCell id="i0vCOCOfqdjtQRk0yR_S-84" value="&lt;span style=&quot;border-bottom: 1px dotted&quot;&gt;Jenis_Kelamin&lt;/span&gt;" style="ellipse;whiteSpace=wrap;html=1;align=center;" parent="1" vertex="1">
          <mxGeometry x="480" y="510" width="100" height="40" as="geometry" />
        </mxCell>
        <mxCell id="i0vCOCOfqdjtQRk0yR_S-85" style="edgeStyle=orthogonalEdgeStyle;curved=1;rounded=0;orthogonalLoop=1;jettySize=auto;html=1;" parent="1" source="i0vCOCOfqdjtQRk0yR_S-82" edge="1">
          <mxGeometry relative="1" as="geometry">
            <mxPoint x="519.9999999999999" y="550" as="sourcePoint" />
            <mxPoint x="460" y="600" as="targetPoint" />
          </mxGeometry>
        </mxCell>
        <mxCell id="i0vCOCOfqdjtQRk0yR_S-88" style="edgeStyle=orthogonalEdgeStyle;curved=1;rounded=0;orthogonalLoop=1;jettySize=auto;html=1;" parent="1" source="i0vCOCOfqdjtQRk0yR_S-89" edge="1">
          <mxGeometry relative="1" as="geometry">
            <mxPoint x="780" y="750" as="targetPoint" />
            <Array as="points">
              <mxPoint x="940" y="750" />
            </Array>
          </mxGeometry>
        </mxCell>
        <mxCell id="i0vCOCOfqdjtQRk0yR_S-89" value="&lt;span style=&quot;font-weight: 700; text-align: left;&quot;&gt;Kode_Pegawai&lt;/span&gt;" style="ellipse;whiteSpace=wrap;html=1;align=center;" parent="1" vertex="1">
          <mxGeometry x="890" y="670" width="100" height="40" as="geometry" />
        </mxCell>
        <mxCell id="i0vCOCOfqdjtQRk0yR_S-92" style="edgeStyle=orthogonalEdgeStyle;curved=1;rounded=0;orthogonalLoop=1;jettySize=auto;html=1;" parent="1" source="i0vCOCOfqdjtQRk0yR_S-93" edge="1">
          <mxGeometry relative="1" as="geometry">
            <mxPoint x="780" y="750" as="targetPoint" />
            <Array as="points">
              <mxPoint x="830" y="750" />
            </Array>
          </mxGeometry>
        </mxCell>
        <mxCell id="i0vCOCOfqdjtQRk0yR_S-93" value="&lt;span style=&quot;border-bottom: 1px dotted&quot;&gt;&lt;b&gt;Shift_Kerja&lt;/b&gt;&lt;/span&gt;" style="ellipse;whiteSpace=wrap;html=1;align=center;" parent="1" vertex="1">
          <mxGeometry x="850" y="800" width="100" height="40" as="geometry" />
        </mxCell>
        <mxCell id="i0vCOCOfqdjtQRk0yR_S-94" style="edgeStyle=orthogonalEdgeStyle;curved=1;rounded=0;orthogonalLoop=1;jettySize=auto;html=1;" parent="1" source="i0vCOCOfqdjtQRk0yR_S-95" edge="1">
          <mxGeometry relative="1" as="geometry">
            <mxPoint x="500" y="940" as="targetPoint" />
          </mxGeometry>
        </mxCell>
        <mxCell id="i0vCOCOfqdjtQRk0yR_S-95" value="&lt;span style=&quot;font-weight: 700; text-align: left;&quot;&gt;ID_Pasien&lt;/span&gt;" style="ellipse;whiteSpace=wrap;html=1;align=center;" parent="1" vertex="1">
          <mxGeometry x="580" y="940" width="100" height="40" as="geometry" />
        </mxCell>
        <mxCell id="i0vCOCOfqdjtQRk0yR_S-96" style="edgeStyle=orthogonalEdgeStyle;curved=1;rounded=0;orthogonalLoop=1;jettySize=auto;html=1;" parent="1" source="i0vCOCOfqdjtQRk0yR_S-97" edge="1">
          <mxGeometry relative="1" as="geometry">
            <mxPoint x="500" y="940" as="targetPoint" />
          </mxGeometry>
        </mxCell>
        <mxCell id="i0vCOCOfqdjtQRk0yR_S-97" value="&lt;span style=&quot;font-weight: 700; text-align: left;&quot;&gt;Kode_Dokter&lt;/span&gt;" style="ellipse;whiteSpace=wrap;html=1;align=center;" parent="1" vertex="1">
          <mxGeometry x="330" y="1010" width="100" height="40" as="geometry" />
        </mxCell>
        <mxCell id="i0vCOCOfqdjtQRk0yR_S-98" style="edgeStyle=orthogonalEdgeStyle;curved=1;rounded=0;orthogonalLoop=1;jettySize=auto;html=1;" parent="1" source="i0vCOCOfqdjtQRk0yR_S-99" edge="1">
          <mxGeometry relative="1" as="geometry">
            <mxPoint x="500" y="940" as="targetPoint" />
          </mxGeometry>
        </mxCell>
        <mxCell id="i0vCOCOfqdjtQRk0yR_S-99" value="&lt;span style=&quot;font-weight: 700; text-align: left;&quot;&gt;Kode_Jadwal&lt;/span&gt;" style="ellipse;whiteSpace=wrap;html=1;align=center;" parent="1" vertex="1">
          <mxGeometry x="600" y="1040" width="100" height="40" as="geometry" />
        </mxCell>
        <mxCell id="i0vCOCOfqdjtQRk0yR_S-100" style="edgeStyle=orthogonalEdgeStyle;curved=1;rounded=0;orthogonalLoop=1;jettySize=auto;html=1;entryX=0.5;entryY=1;entryDx=0;entryDy=0;" parent="1" source="i0vCOCOfqdjtQRk0yR_S-101" target="i0vCOCOfqdjtQRk0yR_S-71" edge="1">
          <mxGeometry relative="1" as="geometry" />
        </mxCell>
        <mxCell id="i0vCOCOfqdjtQRk0yR_S-101" value="&lt;span style=&quot;font-weight: 700; text-align: left;&quot;&gt;ID_Pemeriksaan&lt;/span&gt;" style="ellipse;whiteSpace=wrap;html=1;align=center;" parent="1" vertex="1">
          <mxGeometry x="320" y="950" width="110" height="50" as="geometry" />
        </mxCell>
        <mxCell id="i0vCOCOfqdjtQRk0yR_S-102" style="edgeStyle=orthogonalEdgeStyle;curved=1;rounded=0;orthogonalLoop=1;jettySize=auto;html=1;entryX=0.5;entryY=0;entryDx=0;entryDy=0;" parent="1" source="i0vCOCOfqdjtQRk0yR_S-103" target="i0vCOCOfqdjtQRk0yR_S-76" edge="1">
          <mxGeometry relative="1" as="geometry" />
        </mxCell>
        <mxCell id="i0vCOCOfqdjtQRk0yR_S-103" value="&lt;span style=&quot;font-weight: 700; text-align: left;&quot;&gt;Kode_Jadwal&lt;/span&gt;" style="ellipse;whiteSpace=wrap;html=1;align=center;" parent="1" vertex="1">
          <mxGeometry x="240" y="680" width="100" height="40" as="geometry" />
        </mxCell>
        <mxCell id="i0vCOCOfqdjtQRk0yR_S-108" style="edgeStyle=orthogonalEdgeStyle;curved=1;rounded=0;orthogonalLoop=1;jettySize=auto;html=1;exitX=1;exitY=0;exitDx=0;exitDy=0;" parent="1" source="i0vCOCOfqdjtQRk0yR_S-109" edge="1">
          <mxGeometry relative="1" as="geometry">
            <mxPoint x="190" y="759.9999999999998" as="targetPoint" />
            <Array as="points">
              <mxPoint x="85" y="710" />
              <mxPoint x="190" y="710" />
            </Array>
          </mxGeometry>
        </mxCell>
        <mxCell id="i0vCOCOfqdjtQRk0yR_S-109" value="&lt;span style=&quot;text-align: left;&quot;&gt;Nama_Dokter&lt;/span&gt;" style="ellipse;whiteSpace=wrap;html=1;align=center;" parent="1" vertex="1">
          <mxGeometry y="720" width="100" height="40" as="geometry" />
        </mxCell>
        <mxCell id="i0vCOCOfqdjtQRk0yR_S-110" style="edgeStyle=orthogonalEdgeStyle;rounded=0;orthogonalLoop=1;jettySize=auto;html=1;entryX=1;entryY=0.5;entryDx=0;entryDy=0;curved=1;" parent="1" source="i0vCOCOfqdjtQRk0yR_S-111" target="i0vCOCOfqdjtQRk0yR_S-67" edge="1">
          <mxGeometry relative="1" as="geometry" />
        </mxCell>
        <mxCell id="i0vCOCOfqdjtQRk0yR_S-111" value="&lt;span style=&quot;font-weight: 700; text-align: left;&quot;&gt;Nama_Pegawai&lt;/span&gt;" style="ellipse;whiteSpace=wrap;html=1;align=center;" parent="1" vertex="1">
          <mxGeometry x="920" y="740" width="120" height="50" as="geometry" />
        </mxCell>
        <mxCell id="i0vCOCOfqdjtQRk0yR_S-114" value="" style="endArrow=none;html=1;rounded=0;" parent="1" edge="1">
          <mxGeometry relative="1" as="geometry">
            <mxPoint x="-130" y="35" as="sourcePoint" />
            <mxPoint x="-130" y="210" as="targetPoint" />
          </mxGeometry>
        </mxCell>
        <mxCell id="i0vCOCOfqdjtQRk0yR_S-115" value="" style="shape=tableRow;horizontal=0;startSize=0;swimlaneHead=0;swimlaneBody=0;fillColor=none;collapsible=0;dropTarget=0;points=[[0,0.5],[1,0.5]];portConstraint=eastwest;top=0;left=0;right=0;bottom=0;" parent="1" vertex="1">
          <mxGeometry x="-160" y="150" width="180" height="30" as="geometry" />
        </mxCell>
        <mxCell id="i0vCOCOfqdjtQRk0yR_S-116" value="" style="shape=partialRectangle;connectable=0;fillColor=none;top=0;left=0;bottom=0;right=0;editable=1;overflow=hidden;" parent="i0vCOCOfqdjtQRk0yR_S-115" vertex="1">
          <mxGeometry width="30" height="30" as="geometry">
            <mxRectangle width="30" height="30" as="alternateBounds" />
          </mxGeometry>
        </mxCell>
        <mxCell id="i0vCOCOfqdjtQRk0yR_S-117" value="Tgl_lahir" style="shape=partialRectangle;connectable=0;fillColor=none;top=0;left=0;bottom=0;right=0;align=left;spacingLeft=6;overflow=hidden;" parent="i0vCOCOfqdjtQRk0yR_S-115" vertex="1">
          <mxGeometry x="30" width="150" height="30" as="geometry">
            <mxRectangle width="150" height="30" as="alternateBounds" />
          </mxGeometry>
        </mxCell>
        <mxCell id="i0vCOCOfqdjtQRk0yR_S-118" value="&lt;span style=&quot;border-bottom: 1px dotted&quot;&gt;Tgl_Lahir&lt;/span&gt;" style="ellipse;whiteSpace=wrap;html=1;align=center;" parent="1" vertex="1">
          <mxGeometry x="580" y="530" width="100" height="40" as="geometry" />
        </mxCell>
        <mxCell id="i0vCOCOfqdjtQRk0yR_S-119" style="edgeStyle=orthogonalEdgeStyle;curved=1;rounded=0;orthogonalLoop=1;jettySize=auto;html=1;exitX=0;exitY=0.5;exitDx=0;exitDy=0;" parent="1" source="i0vCOCOfqdjtQRk0yR_S-118" edge="1">
          <mxGeometry relative="1" as="geometry">
            <mxPoint x="470" y="520" as="sourcePoint" />
            <mxPoint x="460" y="600" as="targetPoint" />
          </mxGeometry>
        </mxCell>
        <mxCell id="b2p_P8Qh_fXZOz1itjOQ-1" value="Jadwal" style="shape=table;startSize=30;container=1;collapsible=1;childLayout=tableLayout;fixedRows=1;rowLines=0;fontStyle=1;align=center;resizeLast=1;" parent="1" vertex="1">
          <mxGeometry x="790" y="-20" width="180" height="170" as="geometry" />
        </mxCell>
        <mxCell id="b2p_P8Qh_fXZOz1itjOQ-2" value="" style="shape=tableRow;horizontal=0;startSize=0;swimlaneHead=0;swimlaneBody=0;fillColor=none;collapsible=0;dropTarget=0;points=[[0,0.5],[1,0.5]];portConstraint=eastwest;top=0;left=0;right=0;bottom=1;" parent="b2p_P8Qh_fXZOz1itjOQ-1" vertex="1">
          <mxGeometry y="30" width="180" height="30" as="geometry" />
        </mxCell>
        <mxCell id="b2p_P8Qh_fXZOz1itjOQ-3" value="PK" style="shape=partialRectangle;connectable=0;fillColor=none;top=0;left=0;bottom=0;right=0;fontStyle=1;overflow=hidden;" parent="b2p_P8Qh_fXZOz1itjOQ-2" vertex="1">
          <mxGeometry width="30" height="30" as="geometry">
            <mxRectangle width="30" height="30" as="alternateBounds" />
          </mxGeometry>
        </mxCell>
        <mxCell id="b2p_P8Qh_fXZOz1itjOQ-4" value="Kode_Jadwal" style="shape=partialRectangle;connectable=0;fillColor=none;top=0;left=0;bottom=0;right=0;align=left;spacingLeft=6;fontStyle=1;overflow=hidden;" parent="b2p_P8Qh_fXZOz1itjOQ-2" vertex="1">
          <mxGeometry x="30" width="150" height="30" as="geometry">
            <mxRectangle width="150" height="30" as="alternateBounds" />
          </mxGeometry>
        </mxCell>
        <mxCell id="b2p_P8Qh_fXZOz1itjOQ-5" value="" style="shape=tableRow;horizontal=0;startSize=0;swimlaneHead=0;swimlaneBody=0;fillColor=none;collapsible=0;dropTarget=0;points=[[0,0.5],[1,0.5]];portConstraint=eastwest;top=0;left=0;right=0;bottom=0;" parent="b2p_P8Qh_fXZOz1itjOQ-1" vertex="1">
          <mxGeometry y="60" width="180" height="30" as="geometry" />
        </mxCell>
        <mxCell id="b2p_P8Qh_fXZOz1itjOQ-6" value="" style="shape=partialRectangle;connectable=0;fillColor=none;top=0;left=0;bottom=0;right=0;editable=1;overflow=hidden;" parent="b2p_P8Qh_fXZOz1itjOQ-5" vertex="1">
          <mxGeometry width="30" height="30" as="geometry">
            <mxRectangle width="30" height="30" as="alternateBounds" />
          </mxGeometry>
        </mxCell>
        <mxCell id="b2p_P8Qh_fXZOz1itjOQ-7" value="Nama_Dokter" style="shape=partialRectangle;connectable=0;fillColor=none;top=0;left=0;bottom=0;right=0;align=left;spacingLeft=6;overflow=hidden;" parent="b2p_P8Qh_fXZOz1itjOQ-5" vertex="1">
          <mxGeometry x="30" width="150" height="30" as="geometry">
            <mxRectangle width="150" height="30" as="alternateBounds" />
          </mxGeometry>
        </mxCell>
        <mxCell id="b2p_P8Qh_fXZOz1itjOQ-8" value="" style="shape=tableRow;horizontal=0;startSize=0;swimlaneHead=0;swimlaneBody=0;fillColor=none;collapsible=0;dropTarget=0;points=[[0,0.5],[1,0.5]];portConstraint=eastwest;top=0;left=0;right=0;bottom=0;" parent="b2p_P8Qh_fXZOz1itjOQ-1" vertex="1">
          <mxGeometry y="90" width="180" height="50" as="geometry" />
        </mxCell>
        <mxCell id="b2p_P8Qh_fXZOz1itjOQ-9" value="" style="shape=partialRectangle;connectable=0;fillColor=none;top=0;left=0;bottom=0;right=0;editable=1;overflow=hidden;" parent="b2p_P8Qh_fXZOz1itjOQ-8" vertex="1">
          <mxGeometry width="30" height="50" as="geometry">
            <mxRectangle width="30" height="50" as="alternateBounds" />
          </mxGeometry>
        </mxCell>
        <mxCell id="b2p_P8Qh_fXZOz1itjOQ-10" value="" style="shape=partialRectangle;connectable=0;fillColor=none;top=0;left=0;bottom=0;right=0;align=left;spacingLeft=6;overflow=hidden;" parent="b2p_P8Qh_fXZOz1itjOQ-8" vertex="1">
          <mxGeometry x="30" width="150" height="50" as="geometry">
            <mxRectangle width="150" height="50" as="alternateBounds" />
          </mxGeometry>
        </mxCell>
        <mxCell id="b2p_P8Qh_fXZOz1itjOQ-11" value="" style="shape=tableRow;horizontal=0;startSize=0;swimlaneHead=0;swimlaneBody=0;fillColor=none;collapsible=0;dropTarget=0;points=[[0,0.5],[1,0.5]];portConstraint=eastwest;top=0;left=0;right=0;bottom=0;" parent="b2p_P8Qh_fXZOz1itjOQ-1" vertex="1">
          <mxGeometry y="140" width="180" height="30" as="geometry" />
        </mxCell>
        <mxCell id="b2p_P8Qh_fXZOz1itjOQ-12" value="" style="shape=partialRectangle;connectable=0;fillColor=none;top=0;left=0;bottom=0;right=0;editable=1;overflow=hidden;" parent="b2p_P8Qh_fXZOz1itjOQ-11" vertex="1">
          <mxGeometry width="30" height="30" as="geometry">
            <mxRectangle width="30" height="30" as="alternateBounds" />
          </mxGeometry>
        </mxCell>
        <mxCell id="b2p_P8Qh_fXZOz1itjOQ-13" value="" style="shape=partialRectangle;connectable=0;fillColor=none;top=0;left=0;bottom=0;right=0;align=left;spacingLeft=6;overflow=hidden;" parent="b2p_P8Qh_fXZOz1itjOQ-11" vertex="1">
          <mxGeometry x="30" width="150" height="30" as="geometry">
            <mxRectangle width="150" height="30" as="alternateBounds" />
          </mxGeometry>
        </mxCell>
        <mxCell id="b2p_P8Qh_fXZOz1itjOQ-14" value="Dokter" style="shape=table;startSize=30;container=1;collapsible=1;childLayout=tableLayout;fixedRows=1;rowLines=0;fontStyle=1;align=center;resizeLast=1;" parent="1" vertex="1">
          <mxGeometry x="-160" y="-210" width="180" height="175" as="geometry" />
        </mxCell>
        <mxCell id="b2p_P8Qh_fXZOz1itjOQ-15" value="" style="shape=tableRow;horizontal=0;startSize=0;swimlaneHead=0;swimlaneBody=0;fillColor=none;collapsible=0;dropTarget=0;points=[[0,0.5],[1,0.5]];portConstraint=eastwest;top=0;left=0;right=0;bottom=1;" parent="b2p_P8Qh_fXZOz1itjOQ-14" vertex="1">
          <mxGeometry y="30" width="180" height="30" as="geometry" />
        </mxCell>
        <mxCell id="b2p_P8Qh_fXZOz1itjOQ-16" value="PK" style="shape=partialRectangle;connectable=0;fillColor=none;top=0;left=0;bottom=0;right=0;fontStyle=1;overflow=hidden;" parent="b2p_P8Qh_fXZOz1itjOQ-15" vertex="1">
          <mxGeometry width="30" height="30" as="geometry">
            <mxRectangle width="30" height="30" as="alternateBounds" />
          </mxGeometry>
        </mxCell>
        <mxCell id="b2p_P8Qh_fXZOz1itjOQ-17" value="Kode_Dokter" style="shape=partialRectangle;connectable=0;fillColor=none;top=0;left=0;bottom=0;right=0;align=left;spacingLeft=6;fontStyle=1;overflow=hidden;" parent="b2p_P8Qh_fXZOz1itjOQ-15" vertex="1">
          <mxGeometry x="30" width="150" height="30" as="geometry">
            <mxRectangle width="150" height="30" as="alternateBounds" />
          </mxGeometry>
        </mxCell>
        <mxCell id="b2p_P8Qh_fXZOz1itjOQ-18" value="" style="shape=tableRow;horizontal=0;startSize=0;swimlaneHead=0;swimlaneBody=0;fillColor=none;collapsible=0;dropTarget=0;points=[[0,0.5],[1,0.5]];portConstraint=eastwest;top=0;left=0;right=0;bottom=0;" parent="b2p_P8Qh_fXZOz1itjOQ-14" vertex="1">
          <mxGeometry y="60" width="180" height="30" as="geometry" />
        </mxCell>
        <mxCell id="b2p_P8Qh_fXZOz1itjOQ-19" value="" style="shape=partialRectangle;connectable=0;fillColor=none;top=0;left=0;bottom=0;right=0;editable=1;overflow=hidden;" parent="b2p_P8Qh_fXZOz1itjOQ-18" vertex="1">
          <mxGeometry width="30" height="30" as="geometry">
            <mxRectangle width="30" height="30" as="alternateBounds" />
          </mxGeometry>
        </mxCell>
        <mxCell id="b2p_P8Qh_fXZOz1itjOQ-20" value="Nama_Dokter" style="shape=partialRectangle;connectable=0;fillColor=none;top=0;left=0;bottom=0;right=0;align=left;spacingLeft=6;overflow=hidden;" parent="b2p_P8Qh_fXZOz1itjOQ-18" vertex="1">
          <mxGeometry x="30" width="150" height="30" as="geometry">
            <mxRectangle width="150" height="30" as="alternateBounds" />
          </mxGeometry>
        </mxCell>
        <mxCell id="b2p_P8Qh_fXZOz1itjOQ-21" value="" style="shape=tableRow;horizontal=0;startSize=0;swimlaneHead=0;swimlaneBody=0;fillColor=none;collapsible=0;dropTarget=0;points=[[0,0.5],[1,0.5]];portConstraint=eastwest;top=0;left=0;right=0;bottom=0;" parent="b2p_P8Qh_fXZOz1itjOQ-14" vertex="1">
          <mxGeometry y="90" width="180" height="30" as="geometry" />
        </mxCell>
        <mxCell id="b2p_P8Qh_fXZOz1itjOQ-22" value="" style="shape=partialRectangle;connectable=0;fillColor=none;top=0;left=0;bottom=0;right=0;editable=1;overflow=hidden;" parent="b2p_P8Qh_fXZOz1itjOQ-21" vertex="1">
          <mxGeometry width="30" height="30" as="geometry">
            <mxRectangle width="30" height="30" as="alternateBounds" />
          </mxGeometry>
        </mxCell>
        <mxCell id="b2p_P8Qh_fXZOz1itjOQ-23" value="Alamat_Dokter" style="shape=partialRectangle;connectable=0;fillColor=none;top=0;left=0;bottom=0;right=0;align=left;spacingLeft=6;overflow=hidden;" parent="b2p_P8Qh_fXZOz1itjOQ-21" vertex="1">
          <mxGeometry x="30" width="150" height="30" as="geometry">
            <mxRectangle width="150" height="30" as="alternateBounds" />
          </mxGeometry>
        </mxCell>
        <mxCell id="b2p_P8Qh_fXZOz1itjOQ-24" value="" style="shape=tableRow;horizontal=0;startSize=0;swimlaneHead=0;swimlaneBody=0;fillColor=none;collapsible=0;dropTarget=0;points=[[0,0.5],[1,0.5]];portConstraint=eastwest;top=0;left=0;right=0;bottom=0;" parent="b2p_P8Qh_fXZOz1itjOQ-14" vertex="1">
          <mxGeometry y="120" width="180" height="30" as="geometry" />
        </mxCell>
        <mxCell id="b2p_P8Qh_fXZOz1itjOQ-25" value="" style="shape=partialRectangle;connectable=0;fillColor=none;top=0;left=0;bottom=0;right=0;editable=1;overflow=hidden;" parent="b2p_P8Qh_fXZOz1itjOQ-24" vertex="1">
          <mxGeometry width="30" height="30" as="geometry">
            <mxRectangle width="30" height="30" as="alternateBounds" />
          </mxGeometry>
        </mxCell>
        <mxCell id="b2p_P8Qh_fXZOz1itjOQ-26" value="Jenis_Kelamin" style="shape=partialRectangle;connectable=0;fillColor=none;top=0;left=0;bottom=0;right=0;align=left;spacingLeft=6;overflow=hidden;" parent="b2p_P8Qh_fXZOz1itjOQ-24" vertex="1">
          <mxGeometry x="30" width="150" height="30" as="geometry">
            <mxRectangle width="150" height="30" as="alternateBounds" />
          </mxGeometry>
        </mxCell>
        <mxCell id="b2p_P8Qh_fXZOz1itjOQ-28" value="" style="endArrow=none;html=1;rounded=0;" parent="1" edge="1">
          <mxGeometry relative="1" as="geometry">
            <mxPoint x="-130" y="-175" as="sourcePoint" />
            <mxPoint x="-130" y="-35" as="targetPoint" />
          </mxGeometry>
        </mxCell>
        <mxCell id="b2p_P8Qh_fXZOz1itjOQ-29" value="" style="shape=tableRow;horizontal=0;startSize=0;swimlaneHead=0;swimlaneBody=0;fillColor=none;collapsible=0;dropTarget=0;points=[[0,0.5],[1,0.5]];portConstraint=eastwest;top=0;left=0;right=0;bottom=0;" parent="1" vertex="1">
          <mxGeometry x="465" y="130" width="180" height="30" as="geometry" />
        </mxCell>
        <mxCell id="b2p_P8Qh_fXZOz1itjOQ-30" value="" style="shape=partialRectangle;connectable=0;fillColor=none;top=0;left=0;bottom=0;right=0;editable=1;overflow=hidden;" parent="b2p_P8Qh_fXZOz1itjOQ-29" vertex="1">
          <mxGeometry width="30" height="30" as="geometry">
            <mxRectangle width="30" height="30" as="alternateBounds" />
          </mxGeometry>
        </mxCell>
        <mxCell id="b2p_P8Qh_fXZOz1itjOQ-31" value="Pemeriksaan" style="shape=table;startSize=30;container=1;collapsible=1;childLayout=tableLayout;fixedRows=1;rowLines=0;fontStyle=1;align=center;resizeLast=1;" parent="1" vertex="1">
          <mxGeometry x="475" y="-20" width="180" height="320" as="geometry" />
        </mxCell>
        <mxCell id="b2p_P8Qh_fXZOz1itjOQ-32" value="" style="shape=tableRow;horizontal=0;startSize=0;swimlaneHead=0;swimlaneBody=0;fillColor=none;collapsible=0;dropTarget=0;points=[[0,0.5],[1,0.5]];portConstraint=eastwest;top=0;left=0;right=0;bottom=1;" parent="b2p_P8Qh_fXZOz1itjOQ-31" vertex="1">
          <mxGeometry y="30" width="180" height="30" as="geometry" />
        </mxCell>
        <mxCell id="b2p_P8Qh_fXZOz1itjOQ-33" value="PK" style="shape=partialRectangle;connectable=0;fillColor=none;top=0;left=0;bottom=0;right=0;fontStyle=1;overflow=hidden;" parent="b2p_P8Qh_fXZOz1itjOQ-32" vertex="1">
          <mxGeometry width="30" height="30" as="geometry">
            <mxRectangle width="30" height="30" as="alternateBounds" />
          </mxGeometry>
        </mxCell>
        <mxCell id="b2p_P8Qh_fXZOz1itjOQ-34" value="ID_Pemeriksaan" style="shape=partialRectangle;connectable=0;fillColor=none;top=0;left=0;bottom=0;right=0;align=left;spacingLeft=6;fontStyle=1;overflow=hidden;" parent="b2p_P8Qh_fXZOz1itjOQ-32" vertex="1">
          <mxGeometry x="30" width="150" height="30" as="geometry">
            <mxRectangle width="150" height="30" as="alternateBounds" />
          </mxGeometry>
        </mxCell>
        <mxCell id="b2p_P8Qh_fXZOz1itjOQ-35" value="" style="shape=tableRow;horizontal=0;startSize=0;swimlaneHead=0;swimlaneBody=0;fillColor=none;collapsible=0;dropTarget=0;points=[[0,0.5],[1,0.5]];portConstraint=eastwest;top=0;left=0;right=0;bottom=0;" parent="b2p_P8Qh_fXZOz1itjOQ-31" vertex="1">
          <mxGeometry y="60" width="180" height="30" as="geometry" />
        </mxCell>
        <mxCell id="b2p_P8Qh_fXZOz1itjOQ-36" value="" style="shape=partialRectangle;connectable=0;fillColor=none;top=0;left=0;bottom=0;right=0;editable=1;overflow=hidden;" parent="b2p_P8Qh_fXZOz1itjOQ-35" vertex="1">
          <mxGeometry width="30" height="30" as="geometry">
            <mxRectangle width="30" height="30" as="alternateBounds" />
          </mxGeometry>
        </mxCell>
        <mxCell id="b2p_P8Qh_fXZOz1itjOQ-37" value="Kode_Dokter" style="shape=partialRectangle;connectable=0;fillColor=none;top=0;left=0;bottom=0;right=0;align=left;spacingLeft=6;overflow=hidden;fontStyle=1" parent="b2p_P8Qh_fXZOz1itjOQ-35" vertex="1">
          <mxGeometry x="30" width="150" height="30" as="geometry">
            <mxRectangle width="150" height="30" as="alternateBounds" />
          </mxGeometry>
        </mxCell>
        <mxCell id="b2p_P8Qh_fXZOz1itjOQ-38" value="" style="shape=tableRow;horizontal=0;startSize=0;swimlaneHead=0;swimlaneBody=0;fillColor=none;collapsible=0;dropTarget=0;points=[[0,0.5],[1,0.5]];portConstraint=eastwest;top=0;left=0;right=0;bottom=0;" parent="b2p_P8Qh_fXZOz1itjOQ-31" vertex="1">
          <mxGeometry y="90" width="180" height="30" as="geometry" />
        </mxCell>
        <mxCell id="b2p_P8Qh_fXZOz1itjOQ-39" value="" style="shape=partialRectangle;connectable=0;fillColor=none;top=0;left=0;bottom=0;right=0;editable=1;overflow=hidden;" parent="b2p_P8Qh_fXZOz1itjOQ-38" vertex="1">
          <mxGeometry width="30" height="30" as="geometry">
            <mxRectangle width="30" height="30" as="alternateBounds" />
          </mxGeometry>
        </mxCell>
        <mxCell id="b2p_P8Qh_fXZOz1itjOQ-40" value="Kode_Jadwal" style="shape=partialRectangle;connectable=0;fillColor=none;top=0;left=0;bottom=0;right=0;align=left;spacingLeft=6;overflow=hidden;fontStyle=1" parent="b2p_P8Qh_fXZOz1itjOQ-38" vertex="1">
          <mxGeometry x="30" width="150" height="30" as="geometry">
            <mxRectangle width="150" height="30" as="alternateBounds" />
          </mxGeometry>
        </mxCell>
        <mxCell id="b2p_P8Qh_fXZOz1itjOQ-41" value="" style="shape=tableRow;horizontal=0;startSize=0;swimlaneHead=0;swimlaneBody=0;fillColor=none;collapsible=0;dropTarget=0;points=[[0,0.5],[1,0.5]];portConstraint=eastwest;top=0;left=0;right=0;bottom=0;" parent="b2p_P8Qh_fXZOz1itjOQ-31" vertex="1">
          <mxGeometry y="120" width="180" height="50" as="geometry" />
        </mxCell>
        <mxCell id="b2p_P8Qh_fXZOz1itjOQ-42" value="" style="shape=partialRectangle;connectable=0;fillColor=none;top=0;left=0;bottom=0;right=0;editable=1;overflow=hidden;" parent="b2p_P8Qh_fXZOz1itjOQ-41" vertex="1">
          <mxGeometry width="30" height="50" as="geometry">
            <mxRectangle width="30" height="50" as="alternateBounds" />
          </mxGeometry>
        </mxCell>
        <mxCell id="b2p_P8Qh_fXZOz1itjOQ-43" value="ID_Pasien" style="shape=partialRectangle;connectable=0;fillColor=none;top=0;left=0;bottom=0;right=0;align=left;spacingLeft=6;overflow=hidden;fontStyle=1" parent="b2p_P8Qh_fXZOz1itjOQ-41" vertex="1">
          <mxGeometry x="30" width="150" height="50" as="geometry">
            <mxRectangle width="150" height="50" as="alternateBounds" />
          </mxGeometry>
        </mxCell>
        <mxCell id="b2p_P8Qh_fXZOz1itjOQ-72" value="" style="shape=tableRow;horizontal=0;startSize=0;swimlaneHead=0;swimlaneBody=0;fillColor=none;collapsible=0;dropTarget=0;points=[[0,0.5],[1,0.5]];portConstraint=eastwest;top=0;left=0;right=0;bottom=0;" parent="b2p_P8Qh_fXZOz1itjOQ-31" vertex="1">
          <mxGeometry y="170" width="180" height="50" as="geometry" />
        </mxCell>
        <mxCell id="b2p_P8Qh_fXZOz1itjOQ-73" value="" style="shape=partialRectangle;connectable=0;fillColor=none;top=0;left=0;bottom=0;right=0;editable=1;overflow=hidden;" parent="b2p_P8Qh_fXZOz1itjOQ-72" vertex="1">
          <mxGeometry width="30" height="50" as="geometry">
            <mxRectangle width="30" height="50" as="alternateBounds" />
          </mxGeometry>
        </mxCell>
        <mxCell id="b2p_P8Qh_fXZOz1itjOQ-74" value="Kode_Pegawai" style="shape=partialRectangle;connectable=0;fillColor=none;top=0;left=0;bottom=0;right=0;align=left;spacingLeft=6;overflow=hidden;fontStyle=1" parent="b2p_P8Qh_fXZOz1itjOQ-72" vertex="1">
          <mxGeometry x="30" width="150" height="50" as="geometry">
            <mxRectangle width="150" height="50" as="alternateBounds" />
          </mxGeometry>
        </mxCell>
        <mxCell id="b2p_P8Qh_fXZOz1itjOQ-44" value="FK" style="shape=partialRectangle;connectable=0;fillColor=none;top=0;left=0;bottom=0;right=0;fontStyle=1;overflow=hidden;" parent="1" vertex="1">
          <mxGeometry x="475" y="40" width="30" height="30" as="geometry">
            <mxRectangle width="30" height="30" as="alternateBounds" />
          </mxGeometry>
        </mxCell>
        <mxCell id="b2p_P8Qh_fXZOz1itjOQ-48" value="FK" style="shape=partialRectangle;connectable=0;fillColor=none;top=0;left=0;bottom=0;right=0;fontStyle=1;overflow=hidden;" parent="1" vertex="1">
          <mxGeometry x="475" y="70" width="30" height="30" as="geometry">
            <mxRectangle width="30" height="30" as="alternateBounds" />
          </mxGeometry>
        </mxCell>
        <mxCell id="b2p_P8Qh_fXZOz1itjOQ-53" value="Administrasi" style="shape=table;startSize=30;container=1;collapsible=1;childLayout=tableLayout;fixedRows=1;rowLines=0;fontStyle=1;align=center;resizeLast=1;" parent="1" vertex="1">
          <mxGeometry x="-170" y="260" width="180" height="150" as="geometry" />
        </mxCell>
        <mxCell id="b2p_P8Qh_fXZOz1itjOQ-54" value="" style="shape=tableRow;horizontal=0;startSize=0;swimlaneHead=0;swimlaneBody=0;fillColor=none;collapsible=0;dropTarget=0;points=[[0,0.5],[1,0.5]];portConstraint=eastwest;top=0;left=0;right=0;bottom=1;" parent="b2p_P8Qh_fXZOz1itjOQ-53" vertex="1">
          <mxGeometry y="30" width="180" height="30" as="geometry" />
        </mxCell>
        <mxCell id="b2p_P8Qh_fXZOz1itjOQ-55" value="PK" style="shape=partialRectangle;connectable=0;fillColor=none;top=0;left=0;bottom=0;right=0;fontStyle=1;overflow=hidden;" parent="b2p_P8Qh_fXZOz1itjOQ-54" vertex="1">
          <mxGeometry width="30" height="30" as="geometry">
            <mxRectangle width="30" height="30" as="alternateBounds" />
          </mxGeometry>
        </mxCell>
        <mxCell id="b2p_P8Qh_fXZOz1itjOQ-56" value="Kode_Pegawai" style="shape=partialRectangle;connectable=0;fillColor=none;top=0;left=0;bottom=0;right=0;align=left;spacingLeft=6;fontStyle=1;overflow=hidden;" parent="b2p_P8Qh_fXZOz1itjOQ-54" vertex="1">
          <mxGeometry x="30" width="150" height="30" as="geometry">
            <mxRectangle width="150" height="30" as="alternateBounds" />
          </mxGeometry>
        </mxCell>
        <mxCell id="b2p_P8Qh_fXZOz1itjOQ-57" value="" style="shape=tableRow;horizontal=0;startSize=0;swimlaneHead=0;swimlaneBody=0;fillColor=none;collapsible=0;dropTarget=0;points=[[0,0.5],[1,0.5]];portConstraint=eastwest;top=0;left=0;right=0;bottom=0;" parent="b2p_P8Qh_fXZOz1itjOQ-53" vertex="1">
          <mxGeometry y="60" width="180" height="30" as="geometry" />
        </mxCell>
        <mxCell id="b2p_P8Qh_fXZOz1itjOQ-58" value="" style="shape=partialRectangle;connectable=0;fillColor=none;top=0;left=0;bottom=0;right=0;editable=1;overflow=hidden;" parent="b2p_P8Qh_fXZOz1itjOQ-57" vertex="1">
          <mxGeometry width="30" height="30" as="geometry">
            <mxRectangle width="30" height="30" as="alternateBounds" />
          </mxGeometry>
        </mxCell>
        <mxCell id="b2p_P8Qh_fXZOz1itjOQ-59" value="Nama_Pegawai" style="shape=partialRectangle;connectable=0;fillColor=none;top=0;left=0;bottom=0;right=0;align=left;spacingLeft=6;overflow=hidden;" parent="b2p_P8Qh_fXZOz1itjOQ-57" vertex="1">
          <mxGeometry x="30" width="150" height="30" as="geometry">
            <mxRectangle width="150" height="30" as="alternateBounds" />
          </mxGeometry>
        </mxCell>
        <mxCell id="b2p_P8Qh_fXZOz1itjOQ-60" value="" style="shape=tableRow;horizontal=0;startSize=0;swimlaneHead=0;swimlaneBody=0;fillColor=none;collapsible=0;dropTarget=0;points=[[0,0.5],[1,0.5]];portConstraint=eastwest;top=0;left=0;right=0;bottom=0;" parent="b2p_P8Qh_fXZOz1itjOQ-53" vertex="1">
          <mxGeometry y="90" width="180" height="30" as="geometry" />
        </mxCell>
        <mxCell id="b2p_P8Qh_fXZOz1itjOQ-61" value="" style="shape=partialRectangle;connectable=0;fillColor=none;top=0;left=0;bottom=0;right=0;editable=1;overflow=hidden;" parent="b2p_P8Qh_fXZOz1itjOQ-60" vertex="1">
          <mxGeometry width="30" height="30" as="geometry">
            <mxRectangle width="30" height="30" as="alternateBounds" />
          </mxGeometry>
        </mxCell>
        <mxCell id="b2p_P8Qh_fXZOz1itjOQ-62" value="JenisKelamin_Pegawai" style="shape=partialRectangle;connectable=0;fillColor=none;top=0;left=0;bottom=0;right=0;align=left;spacingLeft=6;overflow=hidden;" parent="b2p_P8Qh_fXZOz1itjOQ-60" vertex="1">
          <mxGeometry x="30" width="150" height="30" as="geometry">
            <mxRectangle width="150" height="30" as="alternateBounds" />
          </mxGeometry>
        </mxCell>
        <mxCell id="b2p_P8Qh_fXZOz1itjOQ-63" value="" style="shape=tableRow;horizontal=0;startSize=0;swimlaneHead=0;swimlaneBody=0;fillColor=none;collapsible=0;dropTarget=0;points=[[0,0.5],[1,0.5]];portConstraint=eastwest;top=0;left=0;right=0;bottom=0;" parent="b2p_P8Qh_fXZOz1itjOQ-53" vertex="1">
          <mxGeometry y="120" width="180" height="30" as="geometry" />
        </mxCell>
        <mxCell id="b2p_P8Qh_fXZOz1itjOQ-64" value="" style="shape=partialRectangle;connectable=0;fillColor=none;top=0;left=0;bottom=0;right=0;editable=1;overflow=hidden;" parent="b2p_P8Qh_fXZOz1itjOQ-63" vertex="1">
          <mxGeometry width="30" height="30" as="geometry">
            <mxRectangle width="30" height="30" as="alternateBounds" />
          </mxGeometry>
        </mxCell>
        <mxCell id="b2p_P8Qh_fXZOz1itjOQ-65" value="Shift_Kerja" style="shape=partialRectangle;connectable=0;fillColor=none;top=0;left=0;bottom=0;right=0;align=left;spacingLeft=6;overflow=hidden;" parent="b2p_P8Qh_fXZOz1itjOQ-63" vertex="1">
          <mxGeometry x="30" width="150" height="30" as="geometry">
            <mxRectangle width="150" height="30" as="alternateBounds" />
          </mxGeometry>
        </mxCell>
        <mxCell id="b2p_P8Qh_fXZOz1itjOQ-69" style="edgeStyle=orthogonalEdgeStyle;curved=1;rounded=0;orthogonalLoop=1;jettySize=auto;html=1;" parent="1" source="b2p_P8Qh_fXZOz1itjOQ-2" target="b2p_P8Qh_fXZOz1itjOQ-38" edge="1">
          <mxGeometry relative="1" as="geometry" />
        </mxCell>
        <mxCell id="b2p_P8Qh_fXZOz1itjOQ-75" value="FK" style="shape=partialRectangle;connectable=0;fillColor=none;top=0;left=0;bottom=0;right=0;fontStyle=1;overflow=hidden;" parent="1" vertex="1">
          <mxGeometry x="475" y="110" width="30" height="30" as="geometry">
            <mxRectangle width="30" height="30" as="alternateBounds" />
          </mxGeometry>
        </mxCell>
        <mxCell id="b2p_P8Qh_fXZOz1itjOQ-79" value="FK" style="shape=partialRectangle;connectable=0;fillColor=none;top=0;left=0;bottom=0;right=0;fontStyle=1;overflow=hidden;" parent="1" vertex="1">
          <mxGeometry x="475" y="160" width="30" height="30" as="geometry">
            <mxRectangle width="30" height="30" as="alternateBounds" />
          </mxGeometry>
        </mxCell>
        <mxCell id="b2p_P8Qh_fXZOz1itjOQ-82" style="edgeStyle=orthogonalEdgeStyle;curved=1;rounded=0;orthogonalLoop=1;jettySize=auto;html=1;exitX=1;exitY=0.5;exitDx=0;exitDy=0;" parent="1" source="b2p_P8Qh_fXZOz1itjOQ-54" edge="1">
          <mxGeometry relative="1" as="geometry">
            <mxPoint x="470" y="180" as="targetPoint" />
            <Array as="points">
              <mxPoint x="30" y="210" />
              <mxPoint x="470" y="210" />
            </Array>
          </mxGeometry>
        </mxCell>
        <mxCell id="b2p_P8Qh_fXZOz1itjOQ-84" style="edgeStyle=orthogonalEdgeStyle;curved=1;rounded=0;orthogonalLoop=1;jettySize=auto;html=1;exitX=1;exitY=0.5;exitDx=0;exitDy=0;" parent="1" source="i0vCOCOfqdjtQRk0yR_S-38" edge="1">
          <mxGeometry relative="1" as="geometry">
            <mxPoint x="470" y="130" as="targetPoint" />
            <Array as="points">
              <mxPoint x="20" y="110" />
              <mxPoint x="470" y="110" />
            </Array>
          </mxGeometry>
        </mxCell>
        <mxCell id="b2p_P8Qh_fXZOz1itjOQ-85" style="edgeStyle=orthogonalEdgeStyle;curved=1;rounded=0;orthogonalLoop=1;jettySize=auto;html=1;exitX=1;exitY=0.5;exitDx=0;exitDy=0;" parent="1" source="b2p_P8Qh_fXZOz1itjOQ-15" edge="1">
          <mxGeometry relative="1" as="geometry">
            <mxPoint x="480" y="60" as="targetPoint" />
            <Array as="points">
              <mxPoint x="20" y="30" />
              <mxPoint x="480" y="30" />
            </Array>
          </mxGeometry>
        </mxCell>
        <mxCell id="b2p_P8Qh_fXZOz1itjOQ-88" value="Diagnosa" style="shape=partialRectangle;connectable=0;fillColor=none;top=0;left=0;bottom=0;right=0;align=left;spacingLeft=6;overflow=hidden;fontStyle=1" parent="1" vertex="1">
          <mxGeometry x="505" y="240" width="150" height="30" as="geometry">
            <mxRectangle width="150" height="30" as="alternateBounds" />
          </mxGeometry>
        </mxCell>
        <mxCell id="b2p_P8Qh_fXZOz1itjOQ-91" style="edgeStyle=orthogonalEdgeStyle;curved=1;rounded=0;orthogonalLoop=1;jettySize=auto;html=1;entryX=0.5;entryY=1;entryDx=0;entryDy=0;" parent="1" source="b2p_P8Qh_fXZOz1itjOQ-89" target="i0vCOCOfqdjtQRk0yR_S-71" edge="1">
          <mxGeometry relative="1" as="geometry">
            <Array as="points">
              <mxPoint x="430" y="1030" />
              <mxPoint x="500" y="1030" />
            </Array>
          </mxGeometry>
        </mxCell>
        <mxCell id="b2p_P8Qh_fXZOz1itjOQ-89" value="&lt;span style=&quot;font-weight: 700; text-align: left;&quot;&gt;Diagnosa&lt;/span&gt;" style="ellipse;whiteSpace=wrap;html=1;align=center;" parent="1" vertex="1">
          <mxGeometry x="290" y="1050" width="100" height="40" as="geometry" />
        </mxCell>
        <mxCell id="b2p_P8Qh_fXZOz1itjOQ-97" style="edgeStyle=orthogonalEdgeStyle;curved=1;rounded=0;orthogonalLoop=1;jettySize=auto;html=1;" parent="1" source="b2p_P8Qh_fXZOz1itjOQ-96" edge="1">
          <mxGeometry relative="1" as="geometry">
            <mxPoint x="790" y="750" as="targetPoint" />
            <Array as="points">
              <mxPoint x="1040" y="790" />
              <mxPoint x="790" y="790" />
            </Array>
          </mxGeometry>
        </mxCell>
        <mxCell id="b2p_P8Qh_fXZOz1itjOQ-96" value="&lt;span style=&quot;text-align: left;&quot;&gt;&lt;font style=&quot;font-size: 10px;&quot;&gt;&lt;b&gt;JenisKelamin_Pegawai&lt;/b&gt;&lt;/font&gt;&lt;/span&gt;" style="ellipse;whiteSpace=wrap;html=1;align=center;" parent="1" vertex="1">
          <mxGeometry x="980" y="800" width="120" height="50" as="geometry" />
        </mxCell>
        <mxCell id="bpUrw66R39gSOcue0Oaj-69" style="edgeStyle=orthogonalEdgeStyle;rounded=0;orthogonalLoop=1;jettySize=auto;html=1;fontSize=10;curved=1;" parent="1" source="b2p_P8Qh_fXZOz1itjOQ-98" target="i0vCOCOfqdjtQRk0yR_S-71" edge="1">
          <mxGeometry relative="1" as="geometry" />
        </mxCell>
        <mxCell id="b2p_P8Qh_fXZOz1itjOQ-98" value="&lt;span style=&quot;font-weight: 700; text-align: left;&quot;&gt;Kode_Pegawai&lt;/span&gt;" style="ellipse;whiteSpace=wrap;html=1;align=center;" parent="1" vertex="1">
          <mxGeometry x="590" y="990" width="100" height="40" as="geometry" />
        </mxCell>
        <mxCell id="b2p_P8Qh_fXZOz1itjOQ-99" style="edgeStyle=orthogonalEdgeStyle;rounded=0;orthogonalLoop=1;jettySize=auto;html=1;exitX=1;exitY=0.5;exitDx=0;exitDy=0;" parent="1" source="b2p_P8Qh_fXZOz1itjOQ-100" target="b2p_P8Qh_fXZOz1itjOQ-105" edge="1">
          <mxGeometry relative="1" as="geometry" />
        </mxCell>
        <mxCell id="b2p_P8Qh_fXZOz1itjOQ-100" value="&lt;b&gt;Pasien&lt;/b&gt;" style="rounded=0;whiteSpace=wrap;html=1;" parent="1" vertex="1">
          <mxGeometry y="1370" width="120" height="60" as="geometry" />
        </mxCell>
        <mxCell id="b2p_P8Qh_fXZOz1itjOQ-101" style="edgeStyle=orthogonalEdgeStyle;rounded=0;orthogonalLoop=1;jettySize=auto;html=1;exitX=0;exitY=0.5;exitDx=0;exitDy=0;entryX=0.41;entryY=1.019;entryDx=0;entryDy=0;entryPerimeter=0;" parent="1" source="b2p_P8Qh_fXZOz1itjOQ-105" target="b2p_P8Qh_fXZOz1itjOQ-100" edge="1">
          <mxGeometry relative="1" as="geometry" />
        </mxCell>
        <mxCell id="b2p_P8Qh_fXZOz1itjOQ-102" style="rounded=0;orthogonalLoop=1;jettySize=auto;html=1;exitX=0.5;exitY=1;exitDx=0;exitDy=0;edgeStyle=orthogonalEdgeStyle;elbow=vertical;entryX=0.458;entryY=1.033;entryDx=0;entryDy=0;entryPerimeter=0;" parent="1" source="b2p_P8Qh_fXZOz1itjOQ-105" target="b2p_P8Qh_fXZOz1itjOQ-108" edge="1">
          <mxGeometry relative="1" as="geometry">
            <mxPoint x="30" y="1750" as="targetPoint" />
            <Array as="points">
              <mxPoint x="370" y="1810" />
              <mxPoint x="55" y="1810" />
            </Array>
          </mxGeometry>
        </mxCell>
        <mxCell id="b2p_P8Qh_fXZOz1itjOQ-103" style="edgeStyle=orthogonalEdgeStyle;rounded=0;orthogonalLoop=1;jettySize=auto;html=1;exitX=1;exitY=0;exitDx=0;exitDy=0;elbow=vertical;entryX=0;entryY=0.5;entryDx=0;entryDy=0;" parent="1" source="b2p_P8Qh_fXZOz1itjOQ-105" target="b2p_P8Qh_fXZOz1itjOQ-110" edge="1">
          <mxGeometry relative="1" as="geometry">
            <mxPoint x="490" y="1470" as="targetPoint" />
            <Array as="points">
              <mxPoint x="405" y="1400" />
              <mxPoint x="640" y="1400" />
            </Array>
          </mxGeometry>
        </mxCell>
        <mxCell id="b2p_P8Qh_fXZOz1itjOQ-104" style="edgeStyle=orthogonalEdgeStyle;rounded=0;orthogonalLoop=1;jettySize=auto;html=1;exitX=1;exitY=1;exitDx=0;exitDy=0;elbow=vertical;" parent="1" source="b2p_P8Qh_fXZOz1itjOQ-105" target="b2p_P8Qh_fXZOz1itjOQ-106" edge="1">
          <mxGeometry relative="1" as="geometry">
            <Array as="points">
              <mxPoint x="680" y="1590" />
            </Array>
          </mxGeometry>
        </mxCell>
        <mxCell id="b2p_P8Qh_fXZOz1itjOQ-105" value="&lt;b&gt;Administrasi&lt;/b&gt;" style="ellipse;whiteSpace=wrap;html=1;aspect=fixed;" parent="1" vertex="1">
          <mxGeometry x="320" y="1505" width="100" height="100" as="geometry" />
        </mxCell>
        <mxCell id="b2p_P8Qh_fXZOz1itjOQ-106" value="&lt;b&gt;Tindakan&lt;/b&gt;" style="rounded=0;whiteSpace=wrap;html=1;" parent="1" vertex="1">
          <mxGeometry x="630" y="1694" width="120" height="60" as="geometry" />
        </mxCell>
        <mxCell id="b2p_P8Qh_fXZOz1itjOQ-107" style="edgeStyle=orthogonalEdgeStyle;rounded=0;orthogonalLoop=1;jettySize=auto;html=1;entryX=0;entryY=1;entryDx=0;entryDy=0;" parent="1" source="b2p_P8Qh_fXZOz1itjOQ-108" target="b2p_P8Qh_fXZOz1itjOQ-105" edge="1">
          <mxGeometry relative="1" as="geometry">
            <Array as="points">
              <mxPoint x="50" y="1590" />
              <mxPoint x="335" y="1590" />
            </Array>
          </mxGeometry>
        </mxCell>
        <mxCell id="b2p_P8Qh_fXZOz1itjOQ-108" value="&lt;b&gt;Diagnosa&lt;/b&gt;" style="rounded=0;whiteSpace=wrap;html=1;" parent="1" vertex="1">
          <mxGeometry y="1650" width="120" height="60" as="geometry" />
        </mxCell>
        <mxCell id="b2p_P8Qh_fXZOz1itjOQ-109" style="edgeStyle=orthogonalEdgeStyle;rounded=0;orthogonalLoop=1;jettySize=auto;html=1;exitX=0.5;exitY=1;exitDx=0;exitDy=0;elbow=vertical;entryX=1;entryY=0.5;entryDx=0;entryDy=0;entryPerimeter=0;" parent="1" source="b2p_P8Qh_fXZOz1itjOQ-110" target="b2p_P8Qh_fXZOz1itjOQ-105" edge="1">
          <mxGeometry relative="1" as="geometry">
            <mxPoint x="430" y="1550" as="targetPoint" />
            <Array as="points">
              <mxPoint x="675" y="1550" />
              <mxPoint x="670" y="1550" />
              <mxPoint x="670" y="1555" />
            </Array>
          </mxGeometry>
        </mxCell>
        <mxCell id="b2p_P8Qh_fXZOz1itjOQ-110" value="&lt;b&gt;Dokter&lt;br&gt;&lt;/b&gt;" style="rounded=0;whiteSpace=wrap;html=1;" parent="1" vertex="1">
          <mxGeometry x="640" y="1360" width="120" height="60" as="geometry" />
        </mxCell>
        <mxCell id="b2p_P8Qh_fXZOz1itjOQ-111" value="Data Pasien" style="text;html=1;align=left;verticalAlign=middle;resizable=0;points=[];autosize=1;strokeColor=none;fillColor=none;" parent="1" vertex="1">
          <mxGeometry x="60" y="1525" width="90" height="30" as="geometry" />
        </mxCell>
        <mxCell id="b2p_P8Qh_fXZOz1itjOQ-115" value="Mendapatkan Jadwal" style="text;html=1;align=left;verticalAlign=middle;resizable=0;points=[];autosize=1;strokeColor=none;fillColor=none;" parent="1" vertex="1">
          <mxGeometry x="525" y="1610" width="140" height="30" as="geometry" />
        </mxCell>
        <mxCell id="b2p_P8Qh_fXZOz1itjOQ-117" value="&lt;div&gt;Data Pasien, Dokter dan Administrasi&lt;/div&gt;" style="text;html=1;align=left;verticalAlign=middle;resizable=0;points=[];autosize=1;strokeColor=none;fillColor=none;" parent="1" vertex="1">
          <mxGeometry x="160" y="1770" width="220" height="30" as="geometry" />
        </mxCell>
        <mxCell id="b2p_P8Qh_fXZOz1itjOQ-118" value="&lt;b&gt;DIAGRAM CONTEXT&lt;/b&gt;" style="text;html=1;align=center;verticalAlign=middle;resizable=0;points=[];autosize=1;strokeColor=none;fillColor=none;" parent="1" vertex="1">
          <mxGeometry x="320" y="1290" width="140" height="30" as="geometry" />
        </mxCell>
        <mxCell id="b2p_P8Qh_fXZOz1itjOQ-125" style="edgeStyle=orthogonalEdgeStyle;rounded=0;orthogonalLoop=1;jettySize=auto;html=1;entryX=0.5;entryY=0;entryDx=0;entryDy=0;fontSize=9;" parent="1" source="b2p_P8Qh_fXZOz1itjOQ-126" edge="1">
          <mxGeometry relative="1" as="geometry">
            <mxPoint x="230" y="1979.9999999999995" as="sourcePoint" />
            <mxPoint x="595" y="2069.9999999999995" as="targetPoint" />
            <Array as="points">
              <mxPoint x="230" y="2020" />
              <mxPoint x="595" y="2020" />
            </Array>
          </mxGeometry>
        </mxCell>
        <mxCell id="b2p_P8Qh_fXZOz1itjOQ-164" style="edgeStyle=orthogonalEdgeStyle;rounded=0;orthogonalLoop=1;jettySize=auto;html=1;exitX=0.5;exitY=1;exitDx=0;exitDy=0;entryX=0.5;entryY=0;entryDx=0;entryDy=0;fontSize=8;" parent="1" edge="1">
          <mxGeometry relative="1" as="geometry">
            <mxPoint x="230" y="2019.9999999999995" as="sourcePoint" />
            <mxPoint x="-30" y="2109.9999999999995" as="targetPoint" />
          </mxGeometry>
        </mxCell>
        <mxCell id="b2p_P8Qh_fXZOz1itjOQ-165" style="edgeStyle=orthogonalEdgeStyle;rounded=0;orthogonalLoop=1;jettySize=auto;html=1;exitX=0.5;exitY=1;exitDx=0;exitDy=0;fontSize=8;" parent="1" edge="1">
          <mxGeometry relative="1" as="geometry">
            <mxPoint x="230" y="2019.9999999999995" as="sourcePoint" />
            <mxPoint x="150" y="2109.9999999999995" as="targetPoint" />
          </mxGeometry>
        </mxCell>
        <mxCell id="b2p_P8Qh_fXZOz1itjOQ-166" style="edgeStyle=orthogonalEdgeStyle;rounded=0;orthogonalLoop=1;jettySize=auto;html=1;exitX=0.5;exitY=1;exitDx=0;exitDy=0;fontSize=8;" parent="1" source="b2p_P8Qh_fXZOz1itjOQ-126" target="b2p_P8Qh_fXZOz1itjOQ-135" edge="1">
          <mxGeometry relative="1" as="geometry">
            <Array as="points">
              <mxPoint x="230" y="2020" />
              <mxPoint x="350" y="2020" />
            </Array>
          </mxGeometry>
        </mxCell>
        <mxCell id="b2p_P8Qh_fXZOz1itjOQ-126" value="Sistem Administrasi Klinik Gigi" style="rounded=0;whiteSpace=wrap;html=1;" parent="1" vertex="1">
          <mxGeometry x="170" y="1910" width="120" height="60" as="geometry" />
        </mxCell>
        <mxCell id="b2p_P8Qh_fXZOz1itjOQ-148" style="edgeStyle=orthogonalEdgeStyle;rounded=0;orthogonalLoop=1;jettySize=auto;html=1;entryX=0;entryY=0.5;entryDx=0;entryDy=0;fontSize=8;" parent="1" source="b2p_P8Qh_fXZOz1itjOQ-128" target="b2p_P8Qh_fXZOz1itjOQ-138" edge="1">
          <mxGeometry relative="1" as="geometry" />
        </mxCell>
        <mxCell id="b2p_P8Qh_fXZOz1itjOQ-128" value="Pasien" style="rounded=0;whiteSpace=wrap;html=1;" parent="1" vertex="1">
          <mxGeometry x="-90" y="2060" width="120" height="60" as="geometry" />
        </mxCell>
        <mxCell id="b2p_P8Qh_fXZOz1itjOQ-133" style="edgeStyle=orthogonalEdgeStyle;rounded=0;orthogonalLoop=1;jettySize=auto;html=1;exitX=0.25;exitY=1;exitDx=0;exitDy=0;entryX=0;entryY=0.5;entryDx=0;entryDy=0;fontSize=11;" parent="1" source="b2p_P8Qh_fXZOz1itjOQ-135" target="b2p_P8Qh_fXZOz1itjOQ-141" edge="1">
          <mxGeometry relative="1" as="geometry">
            <Array as="points">
              <mxPoint x="350" y="2120" />
              <mxPoint x="350" y="2170" />
            </Array>
          </mxGeometry>
        </mxCell>
        <mxCell id="b2p_P8Qh_fXZOz1itjOQ-135" value="Dokter" style="rounded=0;whiteSpace=wrap;html=1;" parent="1" vertex="1">
          <mxGeometry x="290" y="2060" width="120" height="60" as="geometry" />
        </mxCell>
        <mxCell id="b2p_P8Qh_fXZOz1itjOQ-136" style="edgeStyle=orthogonalEdgeStyle;rounded=0;orthogonalLoop=1;jettySize=auto;html=1;entryX=-0.031;entryY=0.643;entryDx=0;entryDy=0;entryPerimeter=0;fontSize=11;" parent="1" source="b2p_P8Qh_fXZOz1itjOQ-137" target="b2p_P8Qh_fXZOz1itjOQ-139" edge="1">
          <mxGeometry relative="1" as="geometry">
            <Array as="points">
              <mxPoint x="590" y="2199" />
            </Array>
          </mxGeometry>
        </mxCell>
        <mxCell id="b2p_P8Qh_fXZOz1itjOQ-137" value="Jadwal" style="rounded=0;whiteSpace=wrap;html=1;" parent="1" vertex="1">
          <mxGeometry x="535" y="2060" width="120" height="60" as="geometry" />
        </mxCell>
        <mxCell id="b2p_P8Qh_fXZOz1itjOQ-138" value="Mendaftar&amp;nbsp;" style="rounded=0;whiteSpace=wrap;html=1;" parent="1" vertex="1">
          <mxGeometry x="-10" y="2170" width="80" height="40" as="geometry" />
        </mxCell>
        <mxCell id="b2p_P8Qh_fXZOz1itjOQ-139" value="&lt;font style=&quot;font-size: 11px;&quot;&gt;Dapat Jadwal Perawatan&lt;/font&gt;" style="rounded=0;whiteSpace=wrap;html=1;" parent="1" vertex="1">
          <mxGeometry x="660" y="2160" width="90" height="60" as="geometry" />
        </mxCell>
        <mxCell id="b2p_P8Qh_fXZOz1itjOQ-141" value="Diagnosa" style="rounded=0;whiteSpace=wrap;html=1;" parent="1" vertex="1">
          <mxGeometry x="415" y="2150" width="80" height="40" as="geometry" />
        </mxCell>
        <mxCell id="b2p_P8Qh_fXZOz1itjOQ-145" value="Keluhan" style="shape=partialRectangle;connectable=0;fillColor=none;top=0;left=0;bottom=0;right=0;align=left;spacingLeft=6;overflow=hidden;fontStyle=1" parent="1" vertex="1">
          <mxGeometry x="505" y="210" width="150" height="30" as="geometry">
            <mxRectangle width="150" height="30" as="alternateBounds" />
          </mxGeometry>
        </mxCell>
        <mxCell id="b2p_P8Qh_fXZOz1itjOQ-147" style="edgeStyle=orthogonalEdgeStyle;curved=1;rounded=0;orthogonalLoop=1;jettySize=auto;html=1;fontSize=8;" parent="1" source="b2p_P8Qh_fXZOz1itjOQ-146" target="i0vCOCOfqdjtQRk0yR_S-71" edge="1">
          <mxGeometry relative="1" as="geometry" />
        </mxCell>
        <mxCell id="b2p_P8Qh_fXZOz1itjOQ-146" value="&lt;span style=&quot;font-weight: 700; text-align: left;&quot;&gt;Keluhan&lt;/span&gt;" style="ellipse;whiteSpace=wrap;html=1;align=center;" parent="1" vertex="1">
          <mxGeometry x="450" y="1120" width="100" height="40" as="geometry" />
        </mxCell>
        <mxCell id="b2p_P8Qh_fXZOz1itjOQ-150" value="Keluhan" style="text;html=1;align=left;verticalAlign=middle;resizable=0;points=[];autosize=1;strokeColor=none;fillColor=none;" parent="1" vertex="1">
          <mxGeometry x="210" y="1370" width="70" height="30" as="geometry" />
        </mxCell>
        <mxCell id="b2p_P8Qh_fXZOz1itjOQ-152" value="Diagnosa Keluhan" style="text;html=1;align=left;verticalAlign=middle;resizable=0;points=[];autosize=1;strokeColor=none;fillColor=none;" parent="1" vertex="1">
          <mxGeometry x="460" y="1375" width="120" height="30" as="geometry" />
        </mxCell>
        <mxCell id="b2p_P8Qh_fXZOz1itjOQ-153" value="Tindakan yang harus dilakukan" style="text;html=1;align=left;verticalAlign=middle;resizable=0;points=[];autosize=1;strokeColor=none;fillColor=none;" parent="1" vertex="1">
          <mxGeometry x="490" y="1520" width="190" height="30" as="geometry" />
        </mxCell>
        <mxCell id="b2p_P8Qh_fXZOz1itjOQ-154" value="&lt;div&gt;Tindakan yang akan dilakukan&lt;/div&gt;" style="text;html=1;align=left;verticalAlign=middle;resizable=0;points=[];autosize=1;strokeColor=none;fillColor=none;" parent="1" vertex="1">
          <mxGeometry x="60" y="1600" width="190" height="30" as="geometry" />
        </mxCell>
        <mxCell id="b2p_P8Qh_fXZOz1itjOQ-160" style="edgeStyle=orthogonalEdgeStyle;rounded=0;orthogonalLoop=1;jettySize=auto;html=1;entryX=0;entryY=0.5;entryDx=0;entryDy=0;fontSize=8;" parent="1" source="b2p_P8Qh_fXZOz1itjOQ-157" target="b2p_P8Qh_fXZOz1itjOQ-158" edge="1">
          <mxGeometry relative="1" as="geometry" />
        </mxCell>
        <mxCell id="b2p_P8Qh_fXZOz1itjOQ-157" value="Admin" style="rounded=0;whiteSpace=wrap;html=1;" parent="1" vertex="1">
          <mxGeometry x="90" y="2060" width="120" height="60" as="geometry" />
        </mxCell>
        <mxCell id="b2p_P8Qh_fXZOz1itjOQ-158" value="Menerima Keluhan" style="rounded=0;whiteSpace=wrap;html=1;" parent="1" vertex="1">
          <mxGeometry x="160" y="2170" width="80" height="40" as="geometry" />
        </mxCell>
        <mxCell id="b2p_P8Qh_fXZOz1itjOQ-168" style="edgeStyle=orthogonalEdgeStyle;rounded=0;orthogonalLoop=1;jettySize=auto;html=1;exitX=1;exitY=0.5;exitDx=0;exitDy=0;entryX=0;entryY=0.5;entryDx=0;entryDy=0;" parent="1" source="b2p_P8Qh_fXZOz1itjOQ-173" target="b2p_P8Qh_fXZOz1itjOQ-174" edge="1">
          <mxGeometry relative="1" as="geometry">
            <mxPoint x="40" y="2590" as="sourcePoint" />
            <mxPoint x="170" y="2590" as="targetPoint" />
          </mxGeometry>
        </mxCell>
        <mxCell id="b2p_P8Qh_fXZOz1itjOQ-169" value="&lt;b&gt;&lt;font style=&quot;font-size: 25px;&quot;&gt;DFD&lt;/font&gt;&lt;/b&gt;" style="text;html=1;align=center;verticalAlign=middle;resizable=0;points=[];autosize=1;strokeColor=none;fillColor=none;" parent="1" vertex="1">
          <mxGeometry x="205" y="2450" width="70" height="40" as="geometry" />
        </mxCell>
        <mxCell id="b2p_P8Qh_fXZOz1itjOQ-170" style="edgeStyle=orthogonalEdgeStyle;rounded=0;orthogonalLoop=1;jettySize=auto;html=1;entryX=1;entryY=0.5;entryDx=0;entryDy=0;" parent="1" target="b2p_P8Qh_fXZOz1itjOQ-176" edge="1">
          <mxGeometry relative="1" as="geometry">
            <mxPoint x="620" y="2580" as="sourcePoint" />
            <mxPoint x="310" y="2740" as="targetPoint" />
            <Array as="points">
              <mxPoint x="800" y="2580" />
              <mxPoint x="800" y="2740" />
            </Array>
          </mxGeometry>
        </mxCell>
        <mxCell id="b2p_P8Qh_fXZOz1itjOQ-171" style="edgeStyle=orthogonalEdgeStyle;rounded=0;orthogonalLoop=1;jettySize=auto;html=1;entryX=0;entryY=0.5;entryDx=0;entryDy=0;exitX=1;exitY=0.5;exitDx=0;exitDy=0;" parent="1" source="b2p_P8Qh_fXZOz1itjOQ-174" edge="1">
          <mxGeometry relative="1" as="geometry">
            <mxPoint x="490" y="2580" as="targetPoint" />
            <mxPoint x="309.9999999999998" y="2590" as="sourcePoint" />
            <Array as="points">
              <mxPoint x="300" y="2580" />
            </Array>
          </mxGeometry>
        </mxCell>
        <mxCell id="b2p_P8Qh_fXZOz1itjOQ-172" value="&lt;div style=&quot;text-align: left;&quot;&gt;Tbl_Pasien&lt;/div&gt;" style="shape=partialRectangle;whiteSpace=wrap;html=1;left=0;right=0;fillColor=none;" parent="1" vertex="1">
          <mxGeometry x="490" y="2550" width="120" height="60" as="geometry" />
        </mxCell>
        <mxCell id="b2p_P8Qh_fXZOz1itjOQ-173" value="Pasien" style="rounded=0;whiteSpace=wrap;html=1;" parent="1" vertex="1">
          <mxGeometry x="-160" y="2560" width="120" height="60" as="geometry" />
        </mxCell>
        <mxCell id="b2p_P8Qh_fXZOz1itjOQ-174" value="Data Pasien" style="ellipse;whiteSpace=wrap;html=1;aspect=fixed;" parent="1" vertex="1">
          <mxGeometry x="180" y="2530" width="120" height="120" as="geometry" />
        </mxCell>
        <mxCell id="b2p_P8Qh_fXZOz1itjOQ-175" style="edgeStyle=orthogonalEdgeStyle;rounded=0;orthogonalLoop=1;jettySize=auto;html=1;entryX=0;entryY=0.5;entryDx=0;entryDy=0;" parent="1" source="b2p_P8Qh_fXZOz1itjOQ-176" target="b2p_P8Qh_fXZOz1itjOQ-180" edge="1">
          <mxGeometry relative="1" as="geometry">
            <Array as="points">
              <mxPoint x="240" y="2850" />
            </Array>
          </mxGeometry>
        </mxCell>
        <mxCell id="b2p_P8Qh_fXZOz1itjOQ-176" value="Administrasi" style="ellipse;whiteSpace=wrap;html=1;aspect=fixed;" parent="1" vertex="1">
          <mxGeometry x="180" y="2680" width="120" height="120" as="geometry" />
        </mxCell>
        <mxCell id="b2p_P8Qh_fXZOz1itjOQ-177" style="edgeStyle=orthogonalEdgeStyle;rounded=0;orthogonalLoop=1;jettySize=auto;html=1;exitX=0.5;exitY=1;exitDx=0;exitDy=0;entryX=0;entryY=0.5;entryDx=0;entryDy=0;" parent="1" source="b2p_P8Qh_fXZOz1itjOQ-178" target="b2p_P8Qh_fXZOz1itjOQ-182" edge="1">
          <mxGeometry relative="1" as="geometry" />
        </mxCell>
        <mxCell id="b2p_P8Qh_fXZOz1itjOQ-178" value="Data Dokter" style="ellipse;whiteSpace=wrap;html=1;aspect=fixed;" parent="1" vertex="1">
          <mxGeometry x="180" y="2930" width="120" height="120" as="geometry" />
        </mxCell>
        <mxCell id="b2p_P8Qh_fXZOz1itjOQ-179" style="edgeStyle=orthogonalEdgeStyle;rounded=0;orthogonalLoop=1;jettySize=auto;html=1;entryX=1;entryY=0.583;entryDx=0;entryDy=0;entryPerimeter=0;" parent="1" source="b2p_P8Qh_fXZOz1itjOQ-180" target="b2p_P8Qh_fXZOz1itjOQ-178" edge="1">
          <mxGeometry relative="1" as="geometry">
            <mxPoint x="770" y="2980" as="targetPoint" />
            <Array as="points">
              <mxPoint x="810" y="2840" />
              <mxPoint x="810" y="3000" />
            </Array>
          </mxGeometry>
        </mxCell>
        <mxCell id="b2p_P8Qh_fXZOz1itjOQ-180" value="&lt;div style=&quot;text-align: left;&quot;&gt;Tbl_Admiinistrasi&lt;/div&gt;" style="shape=partialRectangle;whiteSpace=wrap;html=1;left=0;right=0;fillColor=none;" parent="1" vertex="1">
          <mxGeometry x="510" y="2820" width="120" height="60" as="geometry" />
        </mxCell>
        <mxCell id="b2p_P8Qh_fXZOz1itjOQ-181" style="edgeStyle=orthogonalEdgeStyle;rounded=0;orthogonalLoop=1;jettySize=auto;html=1;entryX=1;entryY=0.5;entryDx=0;entryDy=0;" parent="1" source="b2p_P8Qh_fXZOz1itjOQ-182" target="b2p_P8Qh_fXZOz1itjOQ-184" edge="1">
          <mxGeometry relative="1" as="geometry">
            <Array as="points">
              <mxPoint x="830" y="3130" />
              <mxPoint x="830" y="3270" />
            </Array>
          </mxGeometry>
        </mxCell>
        <mxCell id="b2p_P8Qh_fXZOz1itjOQ-182" value="&lt;div style=&quot;text-align: left;&quot;&gt;Tbl_DOkter&lt;/div&gt;" style="shape=partialRectangle;whiteSpace=wrap;html=1;left=0;right=0;fillColor=none;" parent="1" vertex="1">
          <mxGeometry x="520" y="3100" width="120" height="60" as="geometry" />
        </mxCell>
        <mxCell id="b2p_P8Qh_fXZOz1itjOQ-184" value="Data Pemeriksaan" style="ellipse;whiteSpace=wrap;html=1;aspect=fixed;" parent="1" vertex="1">
          <mxGeometry x="180" y="3210" width="120" height="120" as="geometry" />
        </mxCell>
        <mxCell id="b2p_P8Qh_fXZOz1itjOQ-186" style="edgeStyle=orthogonalEdgeStyle;rounded=0;orthogonalLoop=1;jettySize=auto;html=1;exitX=0.5;exitY=1;exitDx=0;exitDy=0;entryX=0;entryY=0.5;entryDx=0;entryDy=0;entryPerimeter=0;" parent="1" target="b2p_P8Qh_fXZOz1itjOQ-187" edge="1">
          <mxGeometry relative="1" as="geometry">
            <mxPoint x="240" y="3330" as="sourcePoint" />
            <mxPoint x="520" y="3410" as="targetPoint" />
            <Array as="points">
              <mxPoint x="240" y="3410" />
            </Array>
          </mxGeometry>
        </mxCell>
        <mxCell id="b2p_P8Qh_fXZOz1itjOQ-187" value="&lt;div style=&quot;text-align: left;&quot;&gt;Tbl_Pemeriksaan&lt;/div&gt;" style="shape=partialRectangle;whiteSpace=wrap;html=1;left=0;right=0;fillColor=none;" parent="1" vertex="1">
          <mxGeometry x="520" y="3380" width="120" height="60" as="geometry" />
        </mxCell>
        <mxCell id="b2p_P8Qh_fXZOz1itjOQ-188" value="Jadwal" style="ellipse;whiteSpace=wrap;html=1;aspect=fixed;" parent="1" vertex="1">
          <mxGeometry x="180" y="3490" width="120" height="120" as="geometry" />
        </mxCell>
        <mxCell id="b2p_P8Qh_fXZOz1itjOQ-189" style="edgeStyle=orthogonalEdgeStyle;rounded=0;orthogonalLoop=1;jettySize=auto;html=1;" parent="1" edge="1">
          <mxGeometry relative="1" as="geometry">
            <Array as="points">
              <mxPoint x="830" y="3410" />
              <mxPoint x="830" y="3550" />
            </Array>
            <mxPoint x="640" y="3410" as="sourcePoint" />
            <mxPoint x="300" y="3550" as="targetPoint" />
          </mxGeometry>
        </mxCell>
        <mxCell id="b2p_P8Qh_fXZOz1itjOQ-191" value="&lt;div style=&quot;text-align: left;&quot;&gt;Tbl_Jadwal&lt;/div&gt;" style="shape=partialRectangle;whiteSpace=wrap;html=1;left=0;right=0;fillColor=none;" parent="1" vertex="1">
          <mxGeometry x="520" y="3660" width="120" height="60" as="geometry" />
        </mxCell>
        <mxCell id="b2p_P8Qh_fXZOz1itjOQ-192" style="edgeStyle=orthogonalEdgeStyle;rounded=0;orthogonalLoop=1;jettySize=auto;html=1;exitX=0.5;exitY=1;exitDx=0;exitDy=0;entryX=0;entryY=0.5;entryDx=0;entryDy=0;entryPerimeter=0;" parent="1" edge="1">
          <mxGeometry relative="1" as="geometry">
            <mxPoint x="240" y="3610" as="sourcePoint" />
            <mxPoint x="520" y="3690" as="targetPoint" />
            <Array as="points">
              <mxPoint x="240" y="3690" />
            </Array>
          </mxGeometry>
        </mxCell>
        <mxCell id="bpUrw66R39gSOcue0Oaj-1" value="&lt;b&gt;&lt;font style=&quot;font-size: 24px;&quot;&gt;Studi Kasus Klinik Dokter Gigi&lt;/font&gt;&lt;/b&gt;" style="text;html=1;strokeColor=none;fillColor=none;align=center;verticalAlign=middle;whiteSpace=wrap;rounded=0;" parent="1" vertex="1">
          <mxGeometry x="360" y="-280" width="380" height="50" as="geometry" />
        </mxCell>
        <mxCell id="bpUrw66R39gSOcue0Oaj-2" value="" style="shape=tableRow;horizontal=0;startSize=0;swimlaneHead=0;swimlaneBody=0;fillColor=none;collapsible=0;dropTarget=0;points=[[0,0.5],[1,0.5]];portConstraint=eastwest;top=0;left=0;right=0;bottom=0;" parent="1" vertex="1">
          <mxGeometry x="-160" y="180" width="180" height="30" as="geometry" />
        </mxCell>
        <mxCell id="bpUrw66R39gSOcue0Oaj-3" value="" style="shape=partialRectangle;connectable=0;fillColor=none;top=0;left=0;bottom=0;right=0;editable=1;overflow=hidden;" parent="bpUrw66R39gSOcue0Oaj-2" vertex="1">
          <mxGeometry width="30" height="30" as="geometry">
            <mxRectangle width="30" height="30" as="alternateBounds" />
          </mxGeometry>
        </mxCell>
        <mxCell id="bpUrw66R39gSOcue0Oaj-4" value="Tau_Darimana" style="shape=partialRectangle;connectable=0;fillColor=none;top=0;left=0;bottom=0;right=0;align=left;spacingLeft=6;overflow=hidden;" parent="bpUrw66R39gSOcue0Oaj-2" vertex="1">
          <mxGeometry x="30" width="150" height="30" as="geometry">
            <mxRectangle width="150" height="30" as="alternateBounds" />
          </mxGeometry>
        </mxCell>
        <mxCell id="bpUrw66R39gSOcue0Oaj-68" value="" style="line;strokeWidth=2;direction=south;html=1;fontSize=24;movable=0;resizable=0;rotatable=0;deletable=0;editable=0;connectable=0;" parent="1" vertex="1">
          <mxGeometry x="500" y="10" width="10" height="290" as="geometry" />
        </mxCell>
        <mxCell id="bpUrw66R39gSOcue0Oaj-74" style="edgeStyle=orthogonalEdgeStyle;rounded=0;orthogonalLoop=1;jettySize=auto;html=1;entryX=0.5;entryY=1;entryDx=0;entryDy=0;fontSize=10;elbow=vertical;" parent="1" source="bpUrw66R39gSOcue0Oaj-72" target="b2p_P8Qh_fXZOz1itjOQ-157" edge="1">
          <mxGeometry relative="1" as="geometry">
            <Array as="points">
              <mxPoint x="140" y="2260" />
              <mxPoint x="140" y="2120" />
            </Array>
          </mxGeometry>
        </mxCell>
        <mxCell id="bpUrw66R39gSOcue0Oaj-72" value="Melakukan penjadwalan" style="rounded=0;whiteSpace=wrap;html=1;" parent="1" vertex="1">
          <mxGeometry x="160" y="2240" width="80" height="40" as="geometry" />
        </mxCell>
      </root>
    </mxGraphModel>
  </diagram>
  <diagram id="QiqQQtR-lu5ASUmUfLAr" name="Halaman-2">
    <mxGraphModel dx="1422" dy="1874" grid="1" gridSize="10" guides="1" tooltips="1" connect="1" arrows="1" fold="1" page="1" pageScale="1" pageWidth="827" pageHeight="1169" math="0" shadow="0">
      <root>
        <mxCell id="0" />
        <mxCell id="1" parent="0" />
        <mxCell id="iwKMH_YRSDCwTNJU9VYP-1" value="&lt;b style=&quot;font-size: 12px;&quot;&gt;&lt;font style=&quot;font-size: 24px;&quot;&gt;Studi Kasus Klinik Dokter Gigi&lt;/font&gt;&lt;/b&gt;" style="rounded=0;whiteSpace=wrap;html=1;fontSize=10;" parent="1" vertex="1">
          <mxGeometry x="310" y="-230" width="270" height="90" as="geometry" />
        </mxCell>
        <mxCell id="nER0Q5zzwJcpUK5xJ1Bf-4" style="edgeStyle=orthogonalEdgeStyle;rounded=0;orthogonalLoop=1;jettySize=auto;html=1;fontSize=11;elbow=vertical;curved=1;" parent="1" source="nER0Q5zzwJcpUK5xJ1Bf-1" target="nER0Q5zzwJcpUK5xJ1Bf-2" edge="1">
          <mxGeometry relative="1" as="geometry" />
        </mxCell>
        <mxCell id="nER0Q5zzwJcpUK5xJ1Bf-7" style="edgeStyle=orthogonalEdgeStyle;curved=1;rounded=0;orthogonalLoop=1;jettySize=auto;html=1;entryX=0;entryY=0.5;entryDx=0;entryDy=0;fontSize=11;elbow=vertical;" parent="1" source="nER0Q5zzwJcpUK5xJ1Bf-1" target="nER0Q5zzwJcpUK5xJ1Bf-5" edge="1">
          <mxGeometry relative="1" as="geometry">
            <Array as="points">
              <mxPoint x="405" y="60" />
              <mxPoint x="405" y="80" />
            </Array>
          </mxGeometry>
        </mxCell>
        <mxCell id="nER0Q5zzwJcpUK5xJ1Bf-8" style="edgeStyle=orthogonalEdgeStyle;curved=1;rounded=0;orthogonalLoop=1;jettySize=auto;html=1;entryX=0;entryY=0.5;entryDx=0;entryDy=0;fontSize=11;elbow=vertical;" parent="1" source="nER0Q5zzwJcpUK5xJ1Bf-1" target="nER0Q5zzwJcpUK5xJ1Bf-3" edge="1">
          <mxGeometry relative="1" as="geometry" />
        </mxCell>
        <mxCell id="nER0Q5zzwJcpUK5xJ1Bf-9" style="edgeStyle=orthogonalEdgeStyle;curved=1;rounded=0;orthogonalLoop=1;jettySize=auto;html=1;entryX=0;entryY=0.5;entryDx=0;entryDy=0;fontSize=11;elbow=vertical;" parent="1" source="nER0Q5zzwJcpUK5xJ1Bf-1" target="nER0Q5zzwJcpUK5xJ1Bf-6" edge="1">
          <mxGeometry relative="1" as="geometry" />
        </mxCell>
        <mxCell id="nER0Q5zzwJcpUK5xJ1Bf-1" value="&lt;b&gt;&lt;font style=&quot;font-size: 11px;&quot;&gt;User&lt;/font&gt;&lt;/b&gt;" style="shape=umlActor;verticalLabelPosition=bottom;verticalAlign=top;html=1;outlineConnect=0;fontSize=10;strokeWidth=5;" parent="1" vertex="1">
          <mxGeometry x="150" width="90" height="110" as="geometry" />
        </mxCell>
        <mxCell id="nER0Q5zzwJcpUK5xJ1Bf-2" value="Daftar" style="ellipse;whiteSpace=wrap;html=1;strokeWidth=5;fontSize=11;" parent="1" vertex="1">
          <mxGeometry x="560" y="-70" width="120" height="80" as="geometry" />
        </mxCell>
        <mxCell id="nER0Q5zzwJcpUK5xJ1Bf-3" value="Mendapatkan Jadwal" style="ellipse;whiteSpace=wrap;html=1;strokeWidth=5;fontSize=11;" parent="1" vertex="1">
          <mxGeometry x="580" y="150" width="120" height="80" as="geometry" />
        </mxCell>
        <mxCell id="nER0Q5zzwJcpUK5xJ1Bf-5" value="Menyampaikan Keluhan" style="ellipse;whiteSpace=wrap;html=1;strokeWidth=5;fontSize=11;" parent="1" vertex="1">
          <mxGeometry x="570" y="40" width="120" height="80" as="geometry" />
        </mxCell>
        <mxCell id="nER0Q5zzwJcpUK5xJ1Bf-6" value="Tindakan Perawatan" style="ellipse;whiteSpace=wrap;html=1;strokeWidth=5;fontSize=11;" parent="1" vertex="1">
          <mxGeometry x="580" y="280" width="120" height="80" as="geometry" />
        </mxCell>
      </root>
    </mxGraphModel>
  </diagram>
  <diagram id="WqTJhhvBcp6smfCdki8Y" name="Page-3">
    <mxGraphModel dx="2523" dy="829" grid="1" gridSize="10" guides="1" tooltips="1" connect="1" arrows="1" fold="1" page="1" pageScale="1" pageWidth="850" pageHeight="1100" math="0" shadow="0">
      <root>
        <mxCell id="0" />
        <mxCell id="1" parent="0" />
        <mxCell id="gNmLoVFV_LACJzL57PTH-40" value="" style="rounded=0;whiteSpace=wrap;html=1;fontSize=15;" vertex="1" parent="1">
          <mxGeometry x="250" y="500" width="80" height="60" as="geometry" />
        </mxCell>
        <mxCell id="gNmLoVFV_LACJzL57PTH-39" value="" style="rounded=0;whiteSpace=wrap;html=1;fontSize=15;" vertex="1" parent="1">
          <mxGeometry x="65" y="690" width="120" height="60" as="geometry" />
        </mxCell>
        <mxCell id="gNmLoVFV_LACJzL57PTH-37" value="" style="rounded=0;whiteSpace=wrap;html=1;fontSize=15;" vertex="1" parent="1">
          <mxGeometry x="60" y="505" width="120" height="60" as="geometry" />
        </mxCell>
        <mxCell id="gNmLoVFV_LACJzL57PTH-36" value="" style="rounded=0;whiteSpace=wrap;html=1;fontSize=15;" vertex="1" parent="1">
          <mxGeometry x="67.5" y="370" width="112.5" height="60" as="geometry" />
        </mxCell>
        <mxCell id="gNmLoVFV_LACJzL57PTH-35" value="" style="rounded=0;whiteSpace=wrap;html=1;fontSize=15;" vertex="1" parent="1">
          <mxGeometry x="240" y="370" width="70" height="70" as="geometry" />
        </mxCell>
        <mxCell id="gNmLoVFV_LACJzL57PTH-34" value="" style="rounded=0;whiteSpace=wrap;html=1;fontSize=15;" vertex="1" parent="1">
          <mxGeometry x="370" y="380" width="110" height="60" as="geometry" />
        </mxCell>
        <mxCell id="gNmLoVFV_LACJzL57PTH-33" value="" style="rounded=0;whiteSpace=wrap;html=1;fontSize=15;" vertex="1" parent="1">
          <mxGeometry x="370" y="260" width="120" height="70" as="geometry" />
        </mxCell>
        <mxCell id="gNmLoVFV_LACJzL57PTH-32" value="" style="rounded=0;whiteSpace=wrap;html=1;fontSize=15;" vertex="1" parent="1">
          <mxGeometry x="240" y="265" width="70" height="60" as="geometry" />
        </mxCell>
        <mxCell id="gNmLoVFV_LACJzL57PTH-31" value="" style="rounded=0;whiteSpace=wrap;html=1;fontSize=15;" vertex="1" parent="1">
          <mxGeometry x="60" y="265" width="120" height="60" as="geometry" />
        </mxCell>
        <mxCell id="gNmLoVFV_LACJzL57PTH-2" value="Pendaftaran Klinik Online" style="text;html=1;align=center;verticalAlign=middle;resizable=0;points=[];autosize=1;strokeColor=none;fillColor=none;" vertex="1" parent="1">
          <mxGeometry x="60" y="115" width="160" height="30" as="geometry" />
        </mxCell>
        <mxCell id="gNmLoVFV_LACJzL57PTH-3" value="Pasien" style="rounded=0;whiteSpace=wrap;html=1;" vertex="1" parent="1">
          <mxGeometry x="-20" y="180" width="240" height="60" as="geometry" />
        </mxCell>
        <mxCell id="gNmLoVFV_LACJzL57PTH-4" value="Admin(system)" style="rounded=0;whiteSpace=wrap;html=1;" vertex="1" parent="1">
          <mxGeometry x="220" y="180" width="130" height="60" as="geometry" />
        </mxCell>
        <mxCell id="gNmLoVFV_LACJzL57PTH-5" value="Dokter" style="rounded=0;whiteSpace=wrap;html=1;" vertex="1" parent="1">
          <mxGeometry x="350" y="180" width="190" height="60" as="geometry" />
        </mxCell>
        <mxCell id="gNmLoVFV_LACJzL57PTH-6" value="Menyampaikan Keluhan" style="text;html=1;strokeColor=none;fillColor=none;align=left;verticalAlign=middle;whiteSpace=wrap;rounded=0;" vertex="1" parent="1">
          <mxGeometry x="85" y="280" width="60" height="30" as="geometry" />
        </mxCell>
        <mxCell id="gNmLoVFV_LACJzL57PTH-7" value="menerima Pesan" style="text;html=1;strokeColor=none;fillColor=none;align=left;verticalAlign=middle;whiteSpace=wrap;rounded=0;" vertex="1" parent="1">
          <mxGeometry x="250" y="280" width="60" height="30" as="geometry" />
        </mxCell>
        <mxCell id="gNmLoVFV_LACJzL57PTH-8" value="Dokter menerima pesan dari admin" style="text;html=1;strokeColor=none;fillColor=none;align=left;verticalAlign=middle;whiteSpace=wrap;rounded=0;" vertex="1" parent="1">
          <mxGeometry x="380" y="280" width="110" height="30" as="geometry" />
        </mxCell>
        <mxCell id="gNmLoVFV_LACJzL57PTH-9" value="" style="endArrow=classic;html=1;rounded=0;align=left;" edge="1" parent="1">
          <mxGeometry width="50" height="50" relative="1" as="geometry">
            <mxPoint x="180" y="290" as="sourcePoint" />
            <mxPoint x="240" y="290" as="targetPoint" />
            <Array as="points">
              <mxPoint x="220" y="290" />
            </Array>
          </mxGeometry>
        </mxCell>
        <mxCell id="gNmLoVFV_LACJzL57PTH-10" value="" style="endArrow=classic;html=1;rounded=0;entryX=0;entryY=0.5;entryDx=0;entryDy=0;exitX=1;exitY=0.5;exitDx=0;exitDy=0;align=left;" edge="1" parent="1" source="gNmLoVFV_LACJzL57PTH-7" target="gNmLoVFV_LACJzL57PTH-8">
          <mxGeometry width="50" height="50" relative="1" as="geometry">
            <mxPoint x="400" y="210" as="sourcePoint" />
            <mxPoint x="450" y="160" as="targetPoint" />
          </mxGeometry>
        </mxCell>
        <mxCell id="gNmLoVFV_LACJzL57PTH-11" value="Dokter Menyampaikan Diagnosa" style="text;html=1;strokeColor=none;fillColor=none;align=left;verticalAlign=middle;whiteSpace=wrap;rounded=0;" vertex="1" parent="1">
          <mxGeometry x="387.5" y="395" width="85" height="30" as="geometry" />
        </mxCell>
        <mxCell id="gNmLoVFV_LACJzL57PTH-12" value="" style="endArrow=classic;html=1;rounded=0;exitX=0;exitY=0.5;exitDx=0;exitDy=0;align=left;" edge="1" parent="1">
          <mxGeometry width="50" height="50" relative="1" as="geometry">
            <mxPoint x="375" y="405" as="sourcePoint" />
            <mxPoint x="305" y="405" as="targetPoint" />
          </mxGeometry>
        </mxCell>
        <mxCell id="gNmLoVFV_LACJzL57PTH-67" style="edgeStyle=none;rounded=0;orthogonalLoop=1;jettySize=auto;html=1;entryX=1;entryY=0.5;entryDx=0;entryDy=0;fontSize=15;" edge="1" parent="1" source="gNmLoVFV_LACJzL57PTH-13" target="gNmLoVFV_LACJzL57PTH-36">
          <mxGeometry relative="1" as="geometry" />
        </mxCell>
        <mxCell id="gNmLoVFV_LACJzL57PTH-13" value="Admin menerima pesan dari dokter" style="text;html=1;strokeColor=none;fillColor=none;align=left;verticalAlign=middle;whiteSpace=wrap;rounded=0;" vertex="1" parent="1">
          <mxGeometry x="245" y="390" width="60" height="30" as="geometry" />
        </mxCell>
        <mxCell id="gNmLoVFV_LACJzL57PTH-16" value="Pasien menerima diagnosa" style="text;html=1;strokeColor=none;fillColor=none;align=left;verticalAlign=middle;whiteSpace=wrap;rounded=0;" vertex="1" parent="1">
          <mxGeometry x="95" y="385" width="60" height="30" as="geometry" />
        </mxCell>
        <mxCell id="gNmLoVFV_LACJzL57PTH-68" style="edgeStyle=none;rounded=0;orthogonalLoop=1;jettySize=auto;html=1;fontSize=15;exitX=1;exitY=0.5;exitDx=0;exitDy=0;" edge="1" parent="1" source="gNmLoVFV_LACJzL57PTH-37" target="gNmLoVFV_LACJzL57PTH-40">
          <mxGeometry relative="1" as="geometry" />
        </mxCell>
        <mxCell id="gNmLoVFV_LACJzL57PTH-18" value="Setelah menerima diagnosa, apabila keputusan pasien perawatan," style="text;html=1;strokeColor=none;fillColor=none;align=left;verticalAlign=middle;whiteSpace=wrap;rounded=0;fontSize=11;" vertex="1" parent="1">
          <mxGeometry x="73.75" y="520" width="100" height="30" as="geometry" />
        </mxCell>
        <mxCell id="gNmLoVFV_LACJzL57PTH-19" value="Admin akan mengaturkan jadwal" style="text;html=1;strokeColor=none;fillColor=none;align=left;verticalAlign=middle;whiteSpace=wrap;rounded=0;" vertex="1" parent="1">
          <mxGeometry x="260" y="515" width="60" height="30" as="geometry" />
        </mxCell>
        <mxCell id="gNmLoVFV_LACJzL57PTH-24" value="" style="endArrow=none;html=1;rounded=0;align=left;" edge="1" parent="1">
          <mxGeometry width="50" height="50" relative="1" as="geometry">
            <mxPoint x="400" y="380" as="sourcePoint" />
            <mxPoint x="400" y="330" as="targetPoint" />
          </mxGeometry>
        </mxCell>
        <mxCell id="gNmLoVFV_LACJzL57PTH-25" value="" style="endArrow=none;html=1;rounded=0;align=left;exitX=0.541;exitY=0.001;exitDx=0;exitDy=0;exitPerimeter=0;" edge="1" parent="1" source="gNmLoVFV_LACJzL57PTH-37" target="gNmLoVFV_LACJzL57PTH-36">
          <mxGeometry width="50" height="50" relative="1" as="geometry">
            <mxPoint x="130" y="500" as="sourcePoint" />
            <mxPoint x="150" y="430" as="targetPoint" />
          </mxGeometry>
        </mxCell>
        <mxCell id="gNmLoVFV_LACJzL57PTH-28" value="" style="endArrow=none;html=1;rounded=0;align=left;" edge="1" parent="1">
          <mxGeometry width="50" height="50" relative="1" as="geometry">
            <mxPoint x="280" y="620" as="sourcePoint" />
            <mxPoint x="280" y="560" as="targetPoint" />
          </mxGeometry>
        </mxCell>
        <mxCell id="gNmLoVFV_LACJzL57PTH-29" value="" style="endArrow=none;html=1;rounded=0;align=left;exitX=0.5;exitY=0;exitDx=0;exitDy=0;" edge="1" parent="1">
          <mxGeometry width="50" height="50" relative="1" as="geometry">
            <mxPoint x="120" y="620" as="sourcePoint" />
            <mxPoint x="280" y="620" as="targetPoint" />
          </mxGeometry>
        </mxCell>
        <mxCell id="gNmLoVFV_LACJzL57PTH-41" value="" style="endArrow=none;html=1;rounded=0;fontSize=15;entryX=0;entryY=1;entryDx=0;entryDy=0;" edge="1" parent="1" target="gNmLoVFV_LACJzL57PTH-4">
          <mxGeometry width="50" height="50" relative="1" as="geometry">
            <mxPoint x="220" y="950" as="sourcePoint" />
            <mxPoint x="290" y="330" as="targetPoint" />
          </mxGeometry>
        </mxCell>
        <mxCell id="gNmLoVFV_LACJzL57PTH-42" value="" style="endArrow=none;html=1;rounded=0;fontSize=15;entryX=0;entryY=1;entryDx=0;entryDy=0;" edge="1" parent="1">
          <mxGeometry width="50" height="50" relative="1" as="geometry">
            <mxPoint x="350" y="950" as="sourcePoint" />
            <mxPoint x="350" y="210" as="targetPoint" />
          </mxGeometry>
        </mxCell>
        <mxCell id="gNmLoVFV_LACJzL57PTH-47" value="" style="rounded=0;whiteSpace=wrap;html=1;fontSize=15;" vertex="1" parent="1">
          <mxGeometry x="375" y="800" width="120" height="60" as="geometry" />
        </mxCell>
        <mxCell id="gNmLoVFV_LACJzL57PTH-48" value="Pasien bertemu dokter" style="text;html=1;strokeColor=none;fillColor=none;align=left;verticalAlign=middle;whiteSpace=wrap;rounded=0;" vertex="1" parent="1">
          <mxGeometry x="405" y="820" width="60" height="30" as="geometry" />
        </mxCell>
        <mxCell id="gNmLoVFV_LACJzL57PTH-23" value="Pasien akan datang ke klinik" style="text;html=1;strokeColor=none;fillColor=none;align=left;verticalAlign=middle;whiteSpace=wrap;rounded=0;" vertex="1" parent="1">
          <mxGeometry x="77.5" y="705" width="95" height="30" as="geometry" />
        </mxCell>
        <mxCell id="gNmLoVFV_LACJzL57PTH-55" value="" style="endArrow=none;html=1;rounded=0;fontSize=15;" edge="1" parent="1">
          <mxGeometry width="50" height="50" relative="1" as="geometry">
            <mxPoint x="120" y="690" as="sourcePoint" />
            <mxPoint x="120" y="620" as="targetPoint" />
          </mxGeometry>
        </mxCell>
        <mxCell id="gNmLoVFV_LACJzL57PTH-56" value="" style="rhombus;whiteSpace=wrap;html=1;fontSize=15;" vertex="1" parent="1">
          <mxGeometry x="105" y="800" width="40" height="40" as="geometry" />
        </mxCell>
        <mxCell id="gNmLoVFV_LACJzL57PTH-57" value="" style="endArrow=none;html=1;rounded=0;fontSize=15;entryX=0.5;entryY=1;entryDx=0;entryDy=0;exitX=0.5;exitY=0;exitDx=0;exitDy=0;" edge="1" parent="1" source="gNmLoVFV_LACJzL57PTH-56" target="gNmLoVFV_LACJzL57PTH-39">
          <mxGeometry width="50" height="50" relative="1" as="geometry">
            <mxPoint x="430" y="640" as="sourcePoint" />
            <mxPoint x="480" y="590" as="targetPoint" />
          </mxGeometry>
        </mxCell>
        <mxCell id="gNmLoVFV_LACJzL57PTH-58" value="" style="endArrow=none;html=1;rounded=0;fontSize=15;entryX=0;entryY=0.5;entryDx=0;entryDy=0;exitX=1;exitY=0.5;exitDx=0;exitDy=0;" edge="1" parent="1" source="gNmLoVFV_LACJzL57PTH-56" target="gNmLoVFV_LACJzL57PTH-47">
          <mxGeometry width="50" height="50" relative="1" as="geometry">
            <mxPoint x="430" y="640" as="sourcePoint" />
            <mxPoint x="480" y="590" as="targetPoint" />
          </mxGeometry>
        </mxCell>
        <mxCell id="gNmLoVFV_LACJzL57PTH-59" value="" style="endArrow=none;html=1;rounded=0;fontSize=15;exitX=0.5;exitY=1;exitDx=0;exitDy=0;" edge="1" parent="1" source="gNmLoVFV_LACJzL57PTH-56">
          <mxGeometry width="50" height="50" relative="1" as="geometry">
            <mxPoint x="155" y="829.9999999999998" as="sourcePoint" />
            <mxPoint x="120" y="900" as="targetPoint" />
          </mxGeometry>
        </mxCell>
        <mxCell id="gNmLoVFV_LACJzL57PTH-60" value="" style="rounded=0;whiteSpace=wrap;html=1;fontSize=15;" vertex="1" parent="1">
          <mxGeometry x="65" y="890" width="120" height="60" as="geometry" />
        </mxCell>
        <mxCell id="gNmLoVFV_LACJzL57PTH-61" value="Pasien tidak bertemu dokter" style="text;html=1;strokeColor=none;fillColor=none;align=left;verticalAlign=middle;whiteSpace=wrap;rounded=0;" vertex="1" parent="1">
          <mxGeometry x="80" y="905" width="95" height="30" as="geometry" />
        </mxCell>
        <mxCell id="gNmLoVFV_LACJzL57PTH-62" value="ya" style="text;html=1;strokeColor=none;fillColor=none;align=center;verticalAlign=middle;whiteSpace=wrap;rounded=0;fontSize=15;" vertex="1" parent="1">
          <mxGeometry x="160" y="790" width="60" height="30" as="geometry" />
        </mxCell>
        <mxCell id="gNmLoVFV_LACJzL57PTH-64" value="Tidak" style="text;html=1;strokeColor=none;fillColor=none;align=center;verticalAlign=middle;whiteSpace=wrap;rounded=0;fontSize=15;" vertex="1" parent="1">
          <mxGeometry x="60" y="840" width="60" height="30" as="geometry" />
        </mxCell>
      </root>
    </mxGraphModel>
  </diagram>
  <diagram id="pdaHCpwehJ5E17yfgr45" name="Page-4">
    <mxGraphModel dx="1422" dy="705" grid="1" gridSize="10" guides="1" tooltips="1" connect="1" arrows="1" fold="1" page="1" pageScale="1" pageWidth="850" pageHeight="1100" math="0" shadow="0">
      <root>
        <mxCell id="0" />
        <mxCell id="1" parent="0" />
      </root>
    </mxGraphModel>
  </diagram>
</mxfile>
